<?xml version="1.0" encoding="UTF-8"?>
<svg id="Capa_2" data-name="Capa 2" xmlns="http://www.w3.org/2000/svg" xmlns:xlink="http://www.w3.org/1999/xlink" viewBox="0 0 259.04 60">
  <defs>
    <style>
      .cls-1 {
        fill: #eee;
      }

      .cls-2 {
        fill: #b25000;
      }

      .cls-3 {
        fill: #d2d2d2;
      }

      .cls-4 {
        fill: url(#Degradado_sin_nombre_223);
      }

      .cls-5 {
        fill: url(#Degradado_sin_nombre_221);
      }

      .cls-6 {
        fill: url(#Degradado_sin_nombre_221-2);
      }

      .cls-7 {
        fill: url(#Degradado_sin_nombre_223-2);
      }
    </style>
    <linearGradient id="Degradado_sin_nombre_221" data-name="Degradado sin nombre 221" x1="11.71" y1="36.88" x2="27.31" y2="56.64" gradientUnits="userSpaceOnUse">
      <stop offset="0" stop-color="#b25000"/>
      <stop offset="1" stop-color="#d86100"/>
    </linearGradient>
    <linearGradient id="Degradado_sin_nombre_223" data-name="Degradado sin nombre 223" x1="4.19" y1="37.06" x2="28.89" y2="4.3" gradientUnits="userSpaceOnUse">
      <stop offset="0" stop-color="#ff8000"/>
      <stop offset="1" stop-color="#d86100"/>
    </linearGradient>
    <linearGradient id="Degradado_sin_nombre_221-2" data-name="Degradado sin nombre 221" x1="66.26" y1="24.39" x2="49.61" y2="3.07" xlink:href="#Degradado_sin_nombre_221"/>
    <linearGradient id="Degradado_sin_nombre_223-2" data-name="Degradado sin nombre 223" x1="73.23" y1="21.42" x2="48.79" y2="57.04" xlink:href="#Degradado_sin_nombre_223"/>
  </defs>
  <g id="Assets">
    <g>
      <g>
        <g>
          <path class="cls-3" d="M92.06,50.81c-.68,0-1.34-.14-1.98-.41-.64-.27-1.16-.65-1.57-1.14-.41-.49-.61-1.04-.61-1.67,0-.15,.01-.34,.04-.57s.06-.5,.09-.79c.03-.29,.06-.58,.09-.86,.03-.28,.05-.52,.08-.73,.03-.21,.04-.36,.04-.45,0-.2-.06-.34-.18-.41s-.26-.13-.42-.18-.3-.13-.42-.26c-.12-.13-.18-.34-.18-.65s.06-.52,.18-.65c.12-.13,.26-.21,.42-.26s.3-.1,.42-.16,.18-.19,.18-.39c0-.11-.02-.28-.06-.51-.04-.23-.08-.49-.11-.77-.03-.28-.07-.55-.11-.82-.04-.27-.06-.48-.06-.64,0-.45,.12-.89,.36-1.3,.24-.41,.56-.78,.97-1.1,.41-.32,.86-.57,1.35-.76s1-.28,1.52-.28c.56,0,.94,.12,1.14,.37,.2,.25,.3,.5,.3,.77s-.07,.49-.21,.72-.34,.34-.61,.34-.57,.05-.92,.16c-.35,.11-.65,.28-.91,.51-.26,.23-.39,.54-.39,.91,0,.13,.02,.32,.06,.57s.08,.52,.11,.81c.03,.29,.07,.56,.11,.8,.04,.24,.06,.42,.06,.54,0,.28-.09,.54-.27,.77-.18,.23-.33,.37-.45,.41,.15,.04,.3,.17,.47,.4,.17,.23,.25,.48,.25,.76,0,.12-.02,.34-.06,.66-.04,.32-.08,.67-.11,1.05-.03,.38-.07,.73-.11,1.04-.04,.31-.06,.53-.06,.65,0,.27,.08,.48,.24,.65,.16,.17,.36,.3,.6,.4,.24,.1,.48,.17,.73,.21,.25,.04,.46,.06,.65,.06,.23,0,.4,.06,.51,.18s.19,.26,.24,.43c.05,.17,.07,.32,.07,.47,0,.39-.13,.67-.38,.85-.25,.18-.62,.27-1.1,.27Z"/>
          <path class="cls-3" d="M97.68,50.59c-.63,0-1.21-.19-1.74-.58-.53-.39-.96-.89-1.28-1.52-.32-.63-.48-1.29-.48-2v-1.64c0-.75,.16-1.43,.48-2.04,.32-.61,.75-1.1,1.28-1.47,.53-.37,1.13-.55,1.78-.55s1.16,.16,1.6,.47c.44,.31,.77,.66,.98,1.05v-6.14c0-.24,.13-.43,.38-.58,.25-.15,.57-.22,.94-.22s.66,.07,.9,.22c.24,.15,.36,.34,.36,.58v13.42c0,.2-.12,.39-.36,.56-.24,.17-.54,.26-.9,.26-.32,0-.59-.09-.82-.26-.23-.17-.34-.36-.34-.56v-.58c-.2,.41-.56,.78-1.07,1.1-.51,.32-1.08,.48-1.71,.48Zm.82-2.26c.35,0,.65-.1,.92-.29s.48-.41,.64-.64,.24-.42,.24-.55v-2c0-.37-.09-.69-.27-.96-.18-.27-.41-.47-.68-.62-.27-.15-.55-.22-.83-.22-.32,0-.62,.09-.89,.27s-.49,.4-.64,.67c-.15,.27-.23,.55-.23,.86v1.64c0,.31,.08,.6,.23,.88,.15,.28,.36,.51,.63,.69,.27,.18,.56,.27,.88,.27Z"/>
          <path class="cls-3" d="M106.18,38.79c-.39,0-.72-.13-1-.39-.28-.26-.42-.55-.42-.87,0-.35,.14-.64,.42-.89,.28-.25,.61-.37,1-.37s.73,.12,1,.37c.27,.25,.4,.54,.4,.89,0,.32-.13,.61-.4,.87s-.6,.39-1,.39Zm0,11.62c-.37,0-.68-.09-.92-.26-.24-.17-.36-.36-.36-.56v-7.88c0-.24,.12-.43,.36-.58,.24-.15,.55-.22,.92-.22s.67,.07,.92,.22c.25,.15,.38,.34,.38,.58v7.88c0,.2-.13,.39-.38,.56-.25,.17-.56,.26-.92,.26Z"/>
          <path class="cls-3" d="M112.56,50.59c-.67,0-1.28-.08-1.83-.25-.55-.17-.99-.38-1.3-.65-.31-.27-.47-.54-.47-.82,0-.13,.04-.29,.11-.47,.07-.18,.17-.34,.3-.47,.13-.13,.28-.2,.45-.2,.19,0,.38,.08,.59,.23,.21,.15,.47,.3,.78,.45,.31,.15,.75,.22,1.31,.22,.6,0,1-.09,1.19-.28,.19-.19,.29-.38,.29-.58,0-.29-.12-.52-.35-.68s-.53-.29-.89-.4c-.36-.11-.74-.22-1.15-.33-.41-.11-.79-.27-1.15-.46s-.65-.46-.88-.8c-.23-.34-.34-.78-.34-1.33,0-.48,.11-.95,.34-1.4,.23-.45,.6-.83,1.12-1.13s1.23-.45,2.12-.45c.55,0,1.06,.06,1.55,.17,.49,.11,.88,.27,1.19,.47,.31,.2,.46,.42,.46,.66,0,.12-.04,.28-.12,.47s-.19,.37-.33,.53c-.14,.16-.31,.24-.51,.24-.15,0-.32-.05-.53-.15-.21-.1-.44-.2-.71-.29-.27-.09-.59-.14-.96-.14-.33,0-.6,.05-.8,.14-.2,.09-.35,.21-.44,.34-.09,.13-.14,.27-.14,.42,0,.24,.11,.43,.34,.56,.23,.13,.52,.25,.89,.34,.37,.09,.75,.2,1.16,.31,.41,.11,.79,.28,1.16,.5s.66,.51,.89,.87c.23,.36,.34,.84,.34,1.44,0,.88-.32,1.59-.95,2.12-.63,.53-1.54,.8-2.73,.8Z"/>
          <path class="cls-3" d="M122.28,50.59c-.95,0-1.78-.17-2.51-.51-.73-.34-1.3-.82-1.71-1.44-.41-.62-.62-1.34-.62-2.15v-1.7c0-.72,.2-1.38,.59-1.99,.39-.61,.92-1.09,1.58-1.46,.66-.37,1.4-.55,2.21-.55,.75,0,1.43,.16,2.05,.48,.62,.32,1.12,.76,1.51,1.32,.39,.56,.58,1.21,.58,1.96,0,.57-.09,.98-.28,1.23s-.42,.4-.71,.46c-.29,.06-.58,.09-.89,.09h-4.06v.3c0,.57,.22,1.04,.65,1.39,.43,.35,1,.53,1.69,.53,.44,0,.81-.07,1.1-.2,.29-.13,.55-.26,.76-.38,.21-.12,.41-.18,.6-.18,.2,0,.37,.07,.52,.2,.15,.13,.26,.29,.34,.47,.08,.18,.12,.34,.12,.47,0,.23-.14,.47-.43,.73s-.69,.48-1.22,.66c-.53,.18-1.15,.27-1.87,.27Zm-2.26-5.78h2.92c.23,0,.38-.04,.47-.11,.09-.07,.13-.22,.13-.43,0-.31-.08-.58-.24-.82s-.37-.43-.64-.56c-.27-.13-.56-.2-.88-.2s-.59,.06-.86,.19c-.27,.13-.48,.31-.65,.54-.17,.23-.25,.51-.25,.83v.56Z"/>
          <path class="cls-3" d="M128.78,50.41c-.37,0-.68-.09-.92-.26-.24-.17-.36-.36-.36-.56v-7.88c0-.24,.12-.43,.36-.58,.24-.15,.55-.22,.92-.22,.32,0,.59,.07,.81,.22,.22,.15,.33,.34,.33,.58v.6c.2-.39,.53-.74,.99-1.05,.46-.31,1.02-.47,1.69-.47,.63,0,1.2,.18,1.72,.55,.52,.37,.94,.86,1.25,1.47s.47,1.29,.47,2.04v4.74c0,.27-.13,.47-.4,.61s-.57,.21-.9,.21c-.29,0-.58-.07-.86-.21s-.42-.34-.42-.61v-4.74c0-.31-.08-.59-.23-.86s-.36-.49-.63-.67-.56-.27-.88-.27c-.27,0-.53,.07-.78,.22s-.46,.35-.62,.62c-.16,.27-.24,.59-.24,.96v4.74c0,.2-.13,.39-.38,.56-.25,.17-.56,.26-.92,.26Zm4.66-11.5c-.43,0-.79-.05-1.1-.15-.31-.1-.59-.2-.85-.29-.26-.09-.56-.14-.89-.14-.28,0-.52,.04-.71,.12-.19,.08-.36,.16-.51,.24-.15,.08-.29,.12-.42,.12-.17,0-.31-.05-.4-.16s-.16-.23-.2-.37-.06-.24-.06-.31c0-.31,.07-.55,.2-.73s.3-.32,.49-.41c.19-.09,.39-.15,.58-.18s.34-.04,.45-.04c.4,0,.74,.05,1.02,.14,.28,.09,.56,.19,.85,.29,.29,.1,.61,.15,.97,.15,.28,0,.51-.04,.7-.12s.35-.16,.5-.24,.29-.12,.42-.12c.19,0,.32,.06,.41,.17s.15,.24,.19,.37c.04,.13,.06,.23,.06,.3,0,.32-.07,.57-.2,.74-.13,.17-.29,.31-.48,.4-.19,.09-.38,.15-.57,.18-.19,.03-.34,.04-.45,.04Z"/>
          <path class="cls-3" d="M140,50.59c-.71,0-1.32-.22-1.83-.65-.51-.43-.77-1.1-.77-2.01,0-.76,.2-1.35,.59-1.78,.39-.43,.94-.73,1.64-.9,.7-.17,1.51-.26,2.43-.26h.82v-.26c0-.29-.06-.58-.17-.86s-.29-.51-.54-.7c-.25-.19-.6-.28-1.05-.28-.51,0-.9,.05-1.17,.15-.27,.1-.48,.2-.63,.31-.15,.11-.31,.16-.48,.16-.28,0-.5-.14-.65-.42-.15-.28-.23-.57-.23-.86s.17-.53,.51-.75c.34-.22,.76-.39,1.25-.51,.49-.12,.97-.18,1.44-.18,1.04,0,1.87,.19,2.5,.56,.63,.37,1.08,.85,1.37,1.44,.29,.59,.43,1.22,.43,1.9v4.9c0,.23-.12,.42-.36,.58s-.54,.24-.9,.24c-.33,0-.61-.08-.83-.24-.22-.16-.33-.35-.33-.58v-.58c-.36,.41-.78,.78-1.27,1.1-.49,.32-1.08,.48-1.77,.48Zm1.04-1.92c.28,0,.56-.09,.84-.28,.28-.19,.52-.43,.71-.72,.19-.29,.29-.6,.29-.92v-.42h-.3c-.44,0-.86,.03-1.26,.08-.4,.05-.72,.17-.97,.35-.25,.18-.37,.46-.37,.83s.1,.65,.31,.82c.21,.17,.46,.26,.75,.26Z"/>
          <path class="cls-3" d="M150.54,50.59c-.63,0-1.21-.19-1.74-.58-.53-.39-.96-.89-1.28-1.52s-.48-1.29-.48-2v-1.64c0-.75,.16-1.43,.48-2.04s.75-1.1,1.28-1.47c.53-.37,1.13-.55,1.78-.55s1.16,.16,1.6,.47c.44,.31,.77,.66,.98,1.05v-6.14c0-.24,.13-.43,.38-.58,.25-.15,.57-.22,.94-.22s.66,.07,.9,.22c.24,.15,.36,.34,.36,.58v13.42c0,.2-.12,.39-.36,.56-.24,.17-.54,.26-.9,.26-.32,0-.59-.09-.82-.26-.23-.17-.34-.36-.34-.56v-.58c-.2,.41-.56,.78-1.07,1.1-.51,.32-1.08,.48-1.71,.48Zm.82-2.26c.35,0,.65-.1,.92-.29s.48-.41,.64-.64,.24-.42,.24-.55v-2c0-.37-.09-.69-.27-.96s-.41-.47-.68-.62c-.27-.15-.55-.22-.83-.22-.32,0-.62,.09-.89,.27s-.49,.4-.64,.67-.23,.55-.23,.86v1.64c0,.31,.08,.6,.23,.88s.36,.51,.63,.69c.27,.18,.56,.27,.88,.27Z"/>
          <path class="cls-3" d="M161.72,50.59c-.77,0-1.49-.19-2.14-.57s-1.18-.88-1.58-1.51c-.4-.63-.6-1.3-.6-2.02v-1.64c0-.72,.19-1.39,.58-2.01s.91-1.12,1.57-1.49c.66-.37,1.38-.56,2.17-.56s1.51,.18,2.17,.55c.66,.37,1.19,.86,1.58,1.47,.39,.61,.59,1.29,.59,2.04v1.64c0,.71-.2,1.37-.6,2-.4,.63-.93,1.13-1.59,1.52-.66,.39-1.38,.58-2.15,.58Zm0-2.26c.32,0,.61-.09,.88-.26s.48-.4,.64-.69c.16-.29,.24-.58,.24-.89v-1.64c0-.31-.08-.59-.24-.86s-.37-.49-.63-.67-.56-.27-.89-.27-.61,.09-.88,.26c-.27,.17-.48,.4-.63,.67-.15,.27-.23,.56-.23,.87v1.64c0,.31,.08,.6,.23,.89,.15,.29,.36,.52,.63,.69,.27,.17,.56,.26,.88,.26Z"/>
          <path class="cls-3" d="M168.96,50.41c-.36,0-.66-.09-.9-.26-.24-.17-.36-.36-.36-.56v-7.88c0-.24,.12-.43,.36-.58,.24-.15,.54-.22,.9-.22,.33,0,.61,.07,.83,.22,.22,.15,.33,.34,.33,.58v.82c.15-.29,.34-.57,.59-.83,.25-.26,.53-.48,.85-.65,.32-.17,.66-.26,1.02-.26h.62c.25,0,.47,.11,.66,.33s.28,.48,.28,.79-.09,.59-.28,.81c-.19,.22-.41,.33-.66,.33h-.62c-.37,0-.74,.12-1.09,.37-.35,.25-.64,.59-.87,1.02s-.34,.96-.34,1.57v3.58c0,.2-.13,.39-.38,.56-.25,.17-.57,.26-.94,.26Z"/>
          <path class="cls-3" d="M174.14,52.55c-.24,0-.43-.1-.58-.3s-.22-.45-.22-.76,.07-.56,.22-.77c.15-.21,.34-.31,.58-.31h6.4c.21,0,.41,.1,.58,.31,.17,.21,.26,.46,.26,.77s-.09,.56-.26,.76c-.17,.2-.37,.3-.58,.3h-6.4Z"/>
          <path class="cls-3" d="M182.76,50.41c-.36,0-.66-.08-.9-.23-.24-.15-.36-.34-.36-.57v-10.32c0-.75,.16-1.42,.48-2.01,.32-.59,.75-1.06,1.28-1.4,.53-.34,1.12-.51,1.76-.51h1.18c.32,0,.56,.11,.73,.34,.17,.23,.25,.47,.25,.74,0,.29-.08,.55-.25,.77-.17,.22-.41,.33-.73,.33h-.64c-.28,0-.53,.06-.76,.18-.23,.12-.4,.29-.53,.5-.13,.21-.19,.47-.19,.78v1.9h2.44c.21,0,.38,.1,.49,.29s.17,.41,.17,.65-.06,.46-.17,.65-.28,.29-.49,.29h-2.44v6.82c0,.23-.13,.42-.39,.57-.26,.15-.57,.23-.93,.23Z"/>
          <path class="cls-3" d="M189.54,50.41c-.36,0-.66-.09-.9-.26-.24-.17-.36-.36-.36-.56v-7.88c0-.24,.12-.43,.36-.58,.24-.15,.54-.22,.9-.22,.33,0,.61,.07,.83,.22,.22,.15,.33,.34,.33,.58v.82c.15-.29,.34-.57,.59-.83s.53-.48,.85-.65c.32-.17,.66-.26,1.02-.26h.62c.25,0,.47,.11,.66,.33,.19,.22,.28,.48,.28,.79s-.09,.59-.28,.81c-.19,.22-.41,.33-.66,.33h-.62c-.37,0-.74,.12-1.09,.37-.35,.25-.64,.59-.87,1.02s-.34,.96-.34,1.57v3.58c0,.2-.13,.39-.38,.56-.25,.17-.57,.26-.94,.26Z"/>
          <path class="cls-3" d="M199.52,50.59c-.77,0-1.49-.19-2.14-.57-.65-.38-1.18-.88-1.58-1.51-.4-.63-.6-1.3-.6-2.02v-1.64c0-.72,.19-1.39,.58-2.01s.91-1.12,1.57-1.49c.66-.37,1.38-.56,2.17-.56s1.51,.18,2.17,.55c.66,.37,1.19,.86,1.58,1.47s.59,1.29,.59,2.04v1.64c0,.71-.2,1.37-.6,2-.4,.63-.93,1.13-1.59,1.52-.66,.39-1.38,.58-2.15,.58Zm0-2.26c.32,0,.61-.09,.88-.26s.48-.4,.64-.69c.16-.29,.24-.58,.24-.89v-1.64c0-.31-.08-.59-.24-.86-.16-.27-.37-.49-.63-.67-.26-.18-.56-.27-.89-.27s-.61,.09-.88,.26c-.27,.17-.48,.4-.63,.67s-.23,.56-.23,.87v1.64c0,.31,.08,.6,.23,.89,.15,.29,.36,.52,.63,.69s.56,.26,.88,.26Z"/>
          <path class="cls-3" d="M206.78,50.41c-.37,0-.68-.09-.92-.26-.24-.17-.36-.36-.36-.56v-7.88c0-.24,.12-.43,.36-.58,.24-.15,.55-.22,.92-.22,.32,0,.59,.07,.81,.22,.22,.15,.33,.34,.33,.58v.6c.2-.39,.53-.74,.99-1.05,.46-.31,1.02-.47,1.69-.47,.63,0,1.2,.18,1.72,.55,.52,.37,.94,.86,1.25,1.47,.31,.61,.47,1.29,.47,2.04v4.74c0,.27-.13,.47-.4,.61s-.57,.21-.9,.21c-.29,0-.58-.07-.86-.21s-.42-.34-.42-.61v-4.74c0-.31-.08-.59-.23-.86-.15-.27-.36-.49-.63-.67s-.56-.27-.88-.27c-.27,0-.53,.07-.78,.22-.25,.15-.46,.35-.62,.62s-.24,.59-.24,.96v4.74c0,.2-.13,.39-.38,.56-.25,.17-.56,.26-.92,.26Z"/>
          <path class="cls-3" d="M219.62,50.41c-1.2,0-2.12-.26-2.75-.78-.63-.52-.95-1.34-.95-2.46v-9.7c0-.24,.14-.43,.42-.58,.28-.15,.57-.22,.86-.22,.32,0,.62,.07,.89,.22,.27,.15,.41,.34,.41,.58v3.44h2.36c.21,0,.38,.1,.49,.29s.17,.41,.17,.65-.06,.46-.17,.65-.28,.29-.49,.29h-2.36v4.38c0,.39,.08,.66,.25,.82s.46,.24,.87,.24h.78c.37,0,.65,.11,.83,.34,.18,.23,.27,.47,.27,.74s-.09,.53-.27,.76c-.18,.23-.46,.34-.83,.34h-.78Z"/>
          <path class="cls-3" d="M227.2,50.59c-.95,0-1.78-.17-2.51-.51s-1.3-.82-1.71-1.44c-.41-.62-.62-1.34-.62-2.15v-1.7c0-.72,.2-1.38,.59-1.99,.39-.61,.92-1.09,1.58-1.46,.66-.37,1.4-.55,2.21-.55,.75,0,1.43,.16,2.05,.48,.62,.32,1.12,.76,1.51,1.32,.39,.56,.58,1.21,.58,1.96,0,.57-.09,.98-.28,1.23s-.42,.4-.71,.46c-.29,.06-.58,.09-.89,.09h-4.06v.3c0,.57,.22,1.04,.65,1.39,.43,.35,1,.53,1.69,.53,.44,0,.81-.07,1.1-.2,.29-.13,.55-.26,.76-.38,.21-.12,.41-.18,.6-.18,.2,0,.37,.07,.52,.2,.15,.13,.26,.29,.34,.47,.08,.18,.12,.34,.12,.47,0,.23-.14,.47-.43,.73-.29,.26-.69,.48-1.22,.66-.53,.18-1.15,.27-1.87,.27Zm-2.26-5.78h2.92c.23,0,.38-.04,.47-.11,.09-.07,.13-.22,.13-.43,0-.31-.08-.58-.24-.82s-.37-.43-.64-.56c-.27-.13-.56-.2-.88-.2s-.59,.06-.86,.19c-.27,.13-.48,.31-.65,.54-.17,.23-.25,.51-.25,.83v.56Z"/>
          <path class="cls-3" d="M233.7,50.41c-.37,0-.68-.09-.92-.26-.24-.17-.36-.36-.36-.56v-7.88c0-.24,.12-.43,.36-.58,.24-.15,.55-.22,.92-.22,.32,0,.59,.07,.81,.22,.22,.15,.33,.34,.33,.58v.6c.2-.39,.53-.74,.99-1.05,.46-.31,1.02-.47,1.69-.47,.63,0,1.2,.18,1.72,.55,.52,.37,.94,.86,1.25,1.47,.31,.61,.47,1.29,.47,2.04v4.74c0,.27-.13,.47-.4,.61s-.57,.21-.9,.21c-.29,0-.58-.07-.86-.21s-.42-.34-.42-.61v-4.74c0-.31-.08-.59-.23-.86-.15-.27-.36-.49-.63-.67s-.56-.27-.88-.27c-.27,0-.53,.07-.78,.22-.25,.15-.46,.35-.62,.62s-.24,.59-.24,.96v4.74c0,.2-.13,.39-.38,.56-.25,.17-.56,.26-.92,.26Z"/>
          <path class="cls-3" d="M246.04,50.59c-.63,0-1.21-.19-1.74-.58-.53-.39-.96-.89-1.28-1.52-.32-.63-.48-1.29-.48-2v-1.64c0-.75,.16-1.43,.48-2.04,.32-.61,.75-1.1,1.28-1.47,.53-.37,1.13-.55,1.78-.55s1.16,.16,1.6,.47c.44,.31,.77,.66,.98,1.05v-6.14c0-.24,.13-.43,.38-.58,.25-.15,.57-.22,.94-.22s.66,.07,.9,.22c.24,.15,.36,.34,.36,.58v13.42c0,.2-.12,.39-.36,.56-.24,.17-.54,.26-.9,.26-.32,0-.59-.09-.82-.26-.23-.17-.34-.36-.34-.56v-.58c-.2,.41-.56,.78-1.07,1.1-.51,.32-1.08,.48-1.71,.48Zm.82-2.26c.35,0,.65-.1,.92-.29,.27-.19,.48-.41,.64-.64s.24-.42,.24-.55v-2c0-.37-.09-.69-.27-.96-.18-.27-.41-.47-.68-.62s-.55-.22-.83-.22c-.32,0-.62,.09-.89,.27-.27,.18-.49,.4-.64,.67s-.23,.55-.23,.86v1.64c0,.31,.08,.6,.23,.88s.36,.51,.63,.69c.27,.18,.56,.27,.88,.27Z"/>
          <path class="cls-3" d="M254,50.81c-.47,0-.83-.09-1.08-.27-.25-.18-.38-.46-.38-.85,0-.15,.02-.3,.07-.47,.05-.17,.13-.31,.25-.43,.12-.12,.28-.18,.48-.18,.19,0,.41-.02,.66-.06,.25-.04,.5-.11,.73-.21,.23-.1,.43-.23,.59-.4,.16-.17,.24-.38,.24-.65,0-.12-.02-.34-.05-.65-.03-.31-.07-.66-.11-1.04-.04-.38-.08-.73-.11-1.05-.03-.32-.05-.54-.05-.66,0-.28,.08-.53,.25-.76,.17-.23,.32-.36,.45-.4-.12-.04-.27-.18-.44-.41-.17-.23-.26-.49-.26-.77,0-.12,.02-.3,.05-.54,.03-.24,.07-.51,.11-.8,.04-.29,.08-.56,.11-.81s.05-.44,.05-.57c0-.37-.13-.68-.38-.91-.25-.23-.55-.4-.9-.51s-.66-.16-.94-.16-.47-.11-.6-.34c-.13-.23-.2-.47-.2-.72,0-.27,.1-.52,.29-.77,.19-.25,.58-.37,1.15-.37,.52,0,1.03,.09,1.53,.28s.95,.44,1.34,.76c.39,.32,.71,.69,.95,1.1s.36,.85,.36,1.3c0,.16-.02,.37-.05,.64-.03,.27-.07,.54-.11,.82s-.08,.54-.11,.77c-.03,.23-.05,.4-.05,.51,0,.2,.06,.33,.18,.39s.26,.11,.42,.16,.3,.13,.42,.26c.12,.13,.18,.34,.18,.65s-.06,.52-.18,.65c-.12,.13-.26,.21-.42,.26s-.3,.11-.42,.18-.18,.21-.18,.41c0,.09,0,.24,.03,.45,.02,.21,.05,.45,.08,.73,.03,.28,.07,.57,.1,.86s.06,.56,.08,.79c.02,.23,.03,.42,.03,.57,0,.63-.2,1.18-.61,1.67-.41,.49-.93,.87-1.56,1.14-.63,.27-1.3,.41-1.99,.41Z"/>
        </g>
        <g>
          <path class="cls-1" d="M88.56,29.56c-.2,0-.37-.06-.49-.18-.13-.12-.2-.26-.2-.42V8.23c0-.16,.06-.3,.2-.42,.13-.12,.29-.18,.49-.18h5.31c1.14,0,2.17,.21,3.09,.63,.92,.42,1.64,1.08,2.17,2,.53,.91,.79,2.12,.79,3.64v9.39c0,1.52-.27,2.73-.79,3.64-.53,.91-1.26,1.58-2.17,2-.92,.42-1.95,.63-3.09,.63h-5.31Zm.81-1.44h4.5c1.44,0,2.56-.39,3.36-1.18s1.2-2,1.2-3.64V13.9c0-1.64-.4-2.85-1.2-3.64s-1.92-1.19-3.36-1.19h-4.5V28.12Z"/>
          <path class="cls-1" d="M103.62,29.56c-.12,0-.25-.03-.38-.09-.13-.06-.24-.13-.31-.23-.08-.09-.12-.2-.12-.34,0-.06,0-.12,.03-.18l6.39-20.73c.06-.2,.17-.34,.33-.42,.16-.08,.33-.12,.51-.12s.35,.04,.52,.14c.17,.09,.28,.22,.34,.4l6.33,20.73c.02,.06,.03,.12,.03,.18,0,.1-.05,.21-.14,.32s-.2,.19-.33,.25c-.13,.06-.27,.09-.4,.09s-.27-.04-.38-.11c-.11-.07-.19-.18-.23-.34l-1.47-4.77h-8.64l-1.44,4.77c-.04,.16-.12,.28-.24,.34-.12,.07-.26,.11-.42,.11Zm2.52-6.6h7.8l-3.87-12.81-3.93,12.81Z"/>
          <path class="cls-1" d="M124.74,29.74c-.18,0-.35-.04-.51-.13-.16-.09-.27-.22-.33-.41l-6.39-20.73c-.02-.06-.03-.12-.03-.18,0-.14,.04-.26,.12-.35s.19-.17,.32-.22c.13-.06,.25-.09,.38-.09,.16,0,.3,.04,.42,.1,.12,.07,.2,.19,.24,.34l5.79,18.96,5.76-18.96c.04-.16,.12-.27,.24-.34,.12-.07,.24-.1,.36-.1,.14,0,.27,.03,.41,.09,.13,.06,.24,.14,.33,.24,.09,.1,.13,.21,.13,.33,0,.04,0,.07-.01,.09-.01,.02-.01,.05-.01,.09l-6.33,20.73c-.06,.18-.18,.32-.35,.41s-.34,.13-.52,.13Z"/>
          <path class="cls-1" d="M135.78,29.56c-.2,0-.38-.05-.52-.17-.15-.11-.23-.26-.23-.46V8.23c0-.2,.08-.35,.23-.45,.15-.1,.32-.15,.52-.15,.18,0,.35,.05,.51,.15,.16,.1,.24,.25,.24,.45V28.93c0,.2-.08,.36-.24,.46-.16,.11-.33,.17-.51,.17Z"/>
          <path class="cls-1" d="M141.99,29.56c-.2,0-.37-.06-.49-.18-.13-.12-.2-.26-.2-.42V8.23c0-.16,.06-.3,.2-.42,.13-.12,.29-.18,.49-.18h5.31c1.14,0,2.17,.21,3.09,.63s1.64,1.08,2.17,2,.79,2.12,.79,3.64v9.39c0,1.52-.26,2.73-.79,3.64s-1.25,1.58-2.17,2-1.95,.63-3.09,.63h-5.31Zm.81-1.44h4.5c1.44,0,2.56-.39,3.36-1.18s1.2-2,1.2-3.64V13.9c0-1.64-.4-2.85-1.2-3.64s-1.92-1.19-3.36-1.19h-4.5V28.12Z"/>
          <path class="cls-1" d="M175.26,29.59c-.22,0-.41-.12-.56-.38-.15-.25-.28-.48-.4-.67l-4.71-9.21h-4.14v9.6c0,.2-.08,.36-.24,.46-.16,.11-.33,.17-.51,.17-.2,0-.38-.05-.52-.17-.15-.11-.23-.26-.23-.46V8.23c0-.16,.06-.29,.17-.41,.11-.11,.27-.17,.46-.19h5.16c1.12,0,2.16,.17,3.12,.52,.96,.35,1.73,.95,2.31,1.8,.58,.85,.87,2.02,.87,3.5,0,1.26-.22,2.29-.65,3.09-.43,.8-1.01,1.41-1.74,1.81-.73,.41-1.55,.69-2.47,.83l4.8,9.3c.04,.06,.06,.12,.08,.18,0,.06,.01,.11,.01,.15,0,.14-.04,.27-.12,.38-.08,.11-.18,.21-.3,.29s-.25,.12-.39,.12Zm-9.81-11.64h4.29c1.42,0,2.58-.34,3.46-1.03,.89-.69,1.34-1.83,1.34-3.44s-.45-2.71-1.34-3.39c-.89-.68-2.04-1.02-3.46-1.02h-4.29v8.88Z"/>
          <path class="cls-1" d="M185.28,29.74c-1.12,0-2.14-.21-3.04-.63-.91-.42-1.63-1.08-2.16-2-.53-.91-.79-2.12-.79-3.64V13.9c0-1.52,.26-2.73,.79-3.64,.53-.91,1.25-1.58,2.16-2,.91-.42,1.92-.63,3.04-.63s2.17,.21,3.09,.63,1.64,1.08,2.17,2,.79,2.12,.79,3.64v9.57c0,1.52-.26,2.74-.79,3.64-.53,.91-1.25,1.58-2.17,2s-1.95,.63-3.09,.63Zm0-1.44c1.42,0,2.54-.39,3.34-1.19,.81-.79,1.21-2,1.21-3.64V13.9c0-1.64-.4-2.85-1.2-3.64s-1.92-1.19-3.36-1.19-2.53,.4-3.33,1.19-1.2,2-1.2,3.64v9.57c0,1.64,.4,2.86,1.2,3.64,.8,.79,1.91,1.19,3.33,1.19Z"/>
          <path class="cls-1" d="M196.68,29.56c-.2,0-.38-.05-.53-.17-.15-.11-.22-.26-.22-.46V8.35c0-.28,.07-.47,.22-.57,.15-.1,.32-.15,.53-.15,.18,0,.34,.06,.49,.19,.15,.13,.29,.29,.42,.48s.23,.38,.31,.55l5.49,10.74,5.55-10.74c.1-.18,.21-.36,.33-.55,.12-.19,.26-.35,.42-.48,.16-.13,.32-.19,.48-.19,.22,0,.4,.05,.54,.15,.14,.1,.21,.29,.21,.57V28.93c0,.2-.08,.36-.23,.46-.15,.11-.32,.17-.52,.17-.18,0-.35-.05-.51-.17-.16-.11-.24-.26-.24-.46V11.05l-5.34,10.2c-.1,.22-.21,.38-.33,.46-.12,.09-.24,.13-.36,.13-.1,0-.21-.04-.33-.13-.12-.09-.23-.25-.33-.46l-5.31-10.26V28.93c0,.2-.08,.36-.24,.46-.16,.11-.33,.17-.51,.17Z"/>
          <path class="cls-1" d="M216.42,29.56c-.18,0-.34-.05-.48-.17-.14-.11-.21-.26-.21-.46V8.26c0-.2,.07-.36,.21-.46,.14-.11,.3-.17,.48-.17h10.68c.22,0,.38,.07,.48,.22,.1,.15,.15,.31,.15,.46,0,.18-.06,.35-.17,.51-.11,.16-.27,.24-.47,.24h-9.87v8.82h4.74c.2,0,.36,.07,.47,.21,.11,.14,.16,.31,.16,.51,0,.16-.05,.31-.15,.45-.1,.14-.26,.21-.48,.21h-4.74v8.85h9.87c.2,0,.36,.08,.47,.23,.11,.15,.17,.33,.17,.52,0,.16-.05,.32-.15,.47-.1,.15-.26,.22-.48,.22h-10.68Z"/>
          <path class="cls-1" d="M242.13,29.59c-.22,0-.41-.12-.55-.38-.15-.25-.29-.48-.41-.67l-4.71-9.21h-4.14v9.6c0,.2-.08,.36-.24,.46-.16,.11-.33,.17-.51,.17-.2,0-.38-.05-.53-.17-.15-.11-.22-.26-.22-.46V8.23c0-.16,.05-.29,.17-.41s.26-.17,.46-.19h5.16c1.12,0,2.16,.17,3.12,.52,.96,.35,1.73,.95,2.31,1.8,.58,.85,.87,2.02,.87,3.5,0,1.26-.22,2.29-.65,3.09s-1.01,1.41-1.74,1.81c-.73,.41-1.56,.69-2.48,.83l4.8,9.3c.04,.06,.07,.12,.08,.18,0,.06,.01,.11,.01,.15,0,.14-.04,.27-.12,.38-.08,.11-.18,.21-.3,.29-.12,.08-.25,.12-.39,.12Zm-9.81-11.64h4.29c1.42,0,2.57-.34,3.46-1.03,.89-.69,1.33-1.83,1.33-3.44s-.45-2.71-1.33-3.39c-.89-.68-2.05-1.02-3.46-1.02h-4.29v8.88Z"/>
          <path class="cls-1" d="M252.15,29.74c-1.12,0-2.14-.21-3.05-.63s-1.63-1.08-2.16-2c-.53-.91-.79-2.12-.79-3.64V13.9c0-1.52,.26-2.73,.79-3.64,.53-.91,1.25-1.58,2.16-2s1.92-.63,3.05-.63,2.17,.21,3.09,.63c.92,.42,1.64,1.08,2.17,2,.53,.91,.79,2.12,.79,3.64v9.57c0,1.52-.27,2.74-.79,3.64-.53,.91-1.26,1.58-2.17,2-.92,.42-1.95,.63-3.09,.63Zm0-1.44c1.42,0,2.53-.39,3.34-1.19,.81-.79,1.21-2,1.21-3.64V13.9c0-1.64-.4-2.85-1.2-3.64s-1.92-1.19-3.36-1.19-2.53,.4-3.33,1.19c-.8,.79-1.2,2-1.2,3.64v9.57c0,1.64,.4,2.86,1.2,3.64,.8,.79,1.91,1.19,3.33,1.19Z"/>
        </g>
      </g>
      <g>
        <path class="cls-2" d="M58.39,1.68h0c-3.56-2.49-8.47-1.63-10.97,1.93L16.71,47.48c-2.49,3.56-1.63,8.47,1.93,10.97h0c3.56,2.49,8.47,1.63,10.97-1.93L60.33,12.64c2.49-3.56,1.63-8.47-1.93-10.97Z"/>
        <path class="cls-5" d="M27.48,58.57c-3.56,2.49-8.47,1.63-10.97-1.93l-6.74-9.62h0c-1.42-3.68,4.3-12.62,6.49-15.85,.01-.01,.02-.03,.03-.04l.17-.24c.08-.12,.15-.22,.22-.32,.08-.12,.16-.23,.22-.31,.12-.17,.18-.26,.18-.26h0s12.32,17.6,12.32,17.6c2.5,3.56,1.63,8.47-1.93,10.97Z"/>
        <path class="cls-4" d="M30.84,7.88c0,1.56-.46,3.14-1.43,4.52l-12.32,17.6h0s-.07,.09-.18,.27c-.06,.08-.14,.19-.22,.31-.07,.1-.14,.2-.22,.32l-.17,.24s-.02,.03-.03,.04c-2.19,3.22-7.91,12.17-6.49,15.84l-7.53-10.76s-.1-.13-.25-.36l-.15-.21s-.06-.08-.09-.13c-.33-.5-.77-1.2-1.1-1.89,0-.02-.02-.03-.02-.04-.21-.5-.36-1.01-.46-1.54,0,0,0-.01,0-.03-.04-.19-.25-1.19-.13-2.56,0,0,0-.01,0-.02-.03-1.6,.43-3.21,1.42-4.62L16.52,3.36C19.01-.2,23.92-1.07,27.48,1.42c2.19,1.53,3.36,3.97,3.36,6.45Z"/>
        <path class="cls-6" d="M49.55,1.43c3.56-2.49,8.47-1.63,10.97,1.93l6.74,9.62h0c1.42,3.68-4.3,12.62-6.49,15.85-.01,.01-.02,.03-.03,.04l-.17,.24c-.08,.12-.15,.22-.22,.32-.08,.12-.16,.23-.22,.31-.12,.17-.18,.26-.18,.26h0s-12.32-17.6-12.32-17.6c-2.5-3.56-1.63-8.47,1.93-10.97Z"/>
        <path class="cls-7" d="M46.19,52.12c0-1.56,.46-3.14,1.43-4.52l12.32-17.6h0s.07-.09,.18-.27c.06-.08,.14-.19,.22-.31,.07-.1,.14-.2,.22-.32l.17-.24s.02-.03,.03-.04c2.19-3.22,7.91-12.17,6.49-15.84l7.53,10.76s.1,.13,.25,.36l.15,.21s.06,.08,.09,.13c.33,.5,.77,1.2,1.1,1.89,0,.02,.02,.03,.02,.04,.21,.5,.36,1.01,.46,1.54,0,0,0,.01,0,.03,.04,.19,.25,1.19,.13,2.56,0,0,0,.01,0,.02,.03,1.6-.43,3.21-1.42,4.62l-15.06,21.51c-2.49,3.56-7.4,4.43-10.97,1.93-2.19-1.53-3.36-3.97-3.36-6.45Z"/>
      </g>
    </g>
  </g>
</svg>