<?xml version="1.0" encoding="UTF-8"?>
<svg id="Capa_2" data-name="Capa 2" xmlns="http://www.w3.org/2000/svg" viewBox="0 0 217.99 177.94">
  <defs>
    <style>
      .cls-1 {
        opacity: .1;
      }

      .cls-2 {
        fill: #fff;
      }

      .cls-3 {
        fill: #009600;
      }

      .cls-3, .cls-4, .cls-5, .cls-6, .cls-7, .cls-8, .cls-9, .cls-10, .cls-11 {
        stroke: #000;
        stroke-miterlimit: 10;
        stroke-width: .5px;
      }

      .cls-4 {
        fill: #fc6600;
      }

      .cls-5 {
        fill: #fafa00;
      }

      .cls-6, .cls-11 {
        fill: none;
        stroke-linecap: round;
      }

      .cls-7 {
        fill: #2449dd;
      }

      .cls-8 {
        fill: #2861e8;
      }

      .cls-9 {
        fill: #c80000;
      }

      .cls-10 {
        fill: #c8c800;
      }

      .cls-11 {
        stroke-dasharray: 0 0 1 1;
      }

      .cls-12 {
        opacity: .15;
      }
    </style>
  </defs>
  <g id="css_trazos">
    <path class="cls-7" d="M51.15,28.19v111.77c0,1.03,.53,1.99,1.4,2.54l55.22,34.72c.98,.61,2.22,.61,3.19,0l55.22-34.72c.87-.55,1.4-1.51,1.4-2.54V28.19c0-1.66-1.34-3-3-3H54.15c-1.66,0-3,1.34-3,3Z"/>
    <g>
      <path d="M95.23,19.92c-1.11,0-2.14-.2-3.09-.6-.95-.4-1.7-1.06-2.25-1.96-.55-.9-.83-2.1-.83-3.58V6.28c0-1.49,.28-2.68,.83-3.58s1.31-1.56,2.25-1.96,1.99-.6,3.12-.6c1.25,0,2.36,.21,3.31,.63,.96,.42,1.71,1.01,2.26,1.76,.54,.75,.82,1.66,.82,2.71,0,.7-.14,1.16-.43,1.38s-.73,.34-1.32,.34c-.49,0-.89-.08-1.22-.25-.33-.17-.51-.45-.52-.85,0-.22-.03-.47-.09-.77-.06-.29-.18-.59-.36-.87-.18-.29-.45-.53-.82-.72s-.87-.29-1.52-.29c-.91,0-1.61,.25-2.11,.76-.49,.51-.74,1.28-.74,2.32v7.49c0,1.06,.25,1.83,.75,2.34,.5,.5,1.22,.75,2.15,.75,.61,0,1.09-.1,1.45-.3,.36-.2,.62-.44,.79-.74,.17-.3,.29-.6,.35-.93,.06-.32,.11-.63,.15-.91,.03-.41,.21-.7,.54-.86,.32-.16,.71-.24,1.18-.24,.61,0,1.06,.12,1.34,.35s.43,.69,.43,1.37c0,1.07-.27,2.01-.82,2.82-.55,.81-1.3,1.42-2.27,1.85-.97,.43-2.08,.64-3.33,.64Z"/>
      <path d="M109.27,20c-1.16,0-2.21-.17-3.15-.51s-1.68-.76-2.23-1.27c-.55-.51-.82-1.02-.82-1.54,0-.25,.07-.52,.2-.82,.14-.29,.32-.55,.55-.75,.23-.21,.49-.31,.78-.31s.55,.1,.81,.31c.25,.21,.54,.45,.86,.73,.32,.28,.72,.52,1.18,.72,.47,.21,1.04,.31,1.72,.31,.54,0,1.03-.09,1.49-.26,.46-.17,.82-.42,1.1-.76s.42-.78,.42-1.32c0-.57-.15-1.06-.46-1.45-.31-.39-.72-.73-1.24-1.02-.52-.29-1.08-.56-1.69-.83-.61-.27-1.22-.55-1.84-.86-.62-.3-1.18-.67-1.69-1.1-.51-.43-.92-.96-1.23-1.58-.31-.63-.47-1.4-.47-2.31,0-1,.19-1.84,.58-2.52,.38-.68,.9-1.23,1.53-1.65,.63-.42,1.34-.73,2.11-.91s1.54-.28,2.31-.28c.41,0,.9,.03,1.46,.09,.56,.06,1.13,.17,1.69,.34,.56,.16,1.03,.38,1.4,.66,.37,.28,.55,.63,.55,1.06,0,.22-.05,.47-.15,.75-.1,.29-.25,.54-.46,.77s-.47,.34-.79,.34c-.29,0-.57-.09-.85-.26-.28-.17-.64-.34-1.07-.51-.44-.17-1.03-.25-1.78-.25-.63,0-1.17,.09-1.64,.25-.47,.17-.81,.4-1.05,.7-.23,.3-.35,.67-.35,1.11s.16,.86,.47,1.18c.31,.32,.72,.61,1.23,.86,.51,.25,1.07,.5,1.68,.75,.61,.25,1.22,.54,1.84,.87,.62,.33,1.18,.73,1.7,1.2,.52,.47,.93,1.04,1.23,1.73s.46,1.53,.46,2.54c0,1.27-.28,2.34-.83,3.21-.55,.87-1.31,1.52-2.27,1.96-.96,.44-2.05,.66-3.29,.66Z"/>
      <path d="M123.28,20c-1.16,0-2.21-.17-3.15-.51s-1.68-.76-2.23-1.27c-.55-.51-.82-1.02-.82-1.54,0-.25,.07-.52,.2-.82,.14-.29,.32-.55,.55-.75,.23-.21,.49-.31,.78-.31s.55,.1,.81,.31c.25,.21,.54,.45,.86,.73,.32,.28,.72,.52,1.18,.72,.47,.21,1.04,.31,1.72,.31,.54,0,1.03-.09,1.49-.26,.46-.17,.82-.42,1.1-.76s.42-.78,.42-1.32c0-.57-.15-1.06-.46-1.45-.31-.39-.72-.73-1.24-1.02-.52-.29-1.08-.56-1.69-.83-.61-.27-1.22-.55-1.84-.86-.62-.3-1.18-.67-1.69-1.1-.51-.43-.92-.96-1.23-1.58-.31-.63-.47-1.4-.47-2.31,0-1,.19-1.84,.58-2.52,.38-.68,.9-1.23,1.53-1.65,.63-.42,1.34-.73,2.11-.91s1.54-.28,2.31-.28c.41,0,.9,.03,1.46,.09,.56,.06,1.13,.17,1.69,.34,.56,.16,1.03,.38,1.4,.66,.37,.28,.55,.63,.55,1.06,0,.22-.05,.47-.15,.75-.1,.29-.25,.54-.46,.77s-.47,.34-.79,.34c-.29,0-.57-.09-.85-.26-.28-.17-.64-.34-1.07-.51-.44-.17-1.03-.25-1.78-.25-.63,0-1.17,.09-1.64,.25-.47,.17-.81,.4-1.05,.7-.23,.3-.35,.67-.35,1.11s.16,.86,.47,1.18c.31,.32,.72,.61,1.23,.86,.51,.25,1.07,.5,1.68,.75,.61,.25,1.22,.54,1.84,.87,.62,.33,1.18,.73,1.7,1.2,.52,.47,.93,1.04,1.23,1.73s.46,1.53,.46,2.54c0,1.27-.28,2.34-.83,3.21-.55,.87-1.31,1.52-2.27,1.96-.96,.44-2.05,.66-3.29,.66Z"/>
    </g>
    <path class="cls-8" d="M108.62,141.06c-5.52,0-10.25-.77-14.18-2.3-3.94-1.54-7.18-3.53-9.71-5.97-2.53-2.44-4.36-5.11-5.5-8.01-1.13-2.89-1.69-5.7-1.69-8.41s.61-4.55,1.83-5.5c1.21-.95,3.37-1.42,6.44-1.42,3.62,0,6.04,.47,7.27,1.42,1.21,.95,1.83,2.56,1.83,4.82,0,1.54,.31,2.92,.95,4.14,.63,1.22,1.56,2.26,2.78,3.12,1.21,.86,2.71,1.51,4.47,1.97s3.73,.68,5.91,.68c5.06,0,8.75-1.13,11.05-3.4,2.31-2.26,3.46-6.01,3.46-11.26v-2.58c0-4.97-1.38-8.37-4.13-10.18-2.76-1.81-6.32-2.71-10.66-2.71-1.99,0-3.39-.72-4.21-2.17s-1.23-3.03-1.23-4.75,.41-3.3,1.23-4.75c.82-1.45,2.18-2.17,4.07-2.17,2.25,0,4.34-.29,6.24-.88,1.9-.59,3.41-1.83,4.55-3.73,1.13-1.9,1.69-4.8,1.69-8.68,0-4.52-1.06-7.65-3.19-9.36-2.12-1.72-5.04-2.58-8.75-2.58-2.18,0-4.03,.2-5.57,.61-1.53,.4-2.8,1.02-3.8,1.83-.99,.82-1.7,1.77-2.1,2.85-.41,1.09-.62,2.36-.62,3.8,0,1.99-.56,3.62-1.69,4.88-1.14,1.27-3.32,1.9-6.58,1.9-2.72,0-4.7-.22-5.97-.67s-2.13-1.24-2.57-2.38c-.46-1.13-.68-2.64-.68-4.54,0-2.44,.5-5.02,1.49-7.74,.99-2.71,2.63-5.29,4.89-7.73,2.25-2.45,5.29-4.41,9.09-5.91,3.8-1.49,8.55-2.24,14.24-2.24s10.42,.77,14.72,2.31,7.72,4.07,10.25,7.6,3.8,8.33,3.8,14.38c0,5.34-.95,10.04-2.85,14.11s-4.53,6.87-7.87,8.41c3.99,1.53,7.29,3.93,9.91,7.19,2.63,3.26,3.94,7.69,3.94,13.3v2.58c0,7.33-1.47,13.18-4.42,17.57-2.94,4.39-6.87,7.58-11.8,9.57-4.92,1.99-10.38,2.98-16.34,2.98Z"/>
    <g>
      <path class="cls-8" d="M64.01,41.06H6.49c-.22,0-.43,.11-.59,.29L.49,47.85c-.32,.39-.32,1.02,0,1.41l5.41,6.5c.16,.19,.37,.29,.59,.29h57.53c.22,0,.43-.11,.59-.29l5.41-6.5c.32-.39,.32-1.02,0-1.41l-5.41-6.5c-.16-.19-.37-.29-.59-.29Z"/>
      <g>
        <path class="cls-2" d="M23.35,52.78c-.23,0-.43-.08-.58-.25-.16-.16-.23-.35-.23-.57s.08-.42,.23-.58c.16-.16,.35-.24,.58-.24,.22,0,.4,.08,.56,.24s.24,.35,.24,.58-.08,.41-.24,.57-.35,.25-.56,.25Z"/>
        <path class="cls-2" d="M27.5,52.82c-.61,0-1.1-.11-1.49-.32-.38-.22-.67-.51-.85-.88s-.28-.79-.28-1.25v-.96c0-.46,.09-.88,.27-1.25s.46-.67,.85-.88c.39-.22,.88-.32,1.47-.32,.38,0,.71,.04,1,.13s.52,.2,.68,.35c.17,.14,.25,.3,.25,.46,0,.09-.03,.19-.08,.31s-.12,.22-.22,.31-.2,.13-.32,.13c-.09,0-.18-.03-.27-.08-.09-.06-.21-.11-.35-.17-.14-.06-.34-.08-.58-.08-.41,0-.7,.1-.89,.29-.18,.2-.28,.47-.28,.81v.96c0,.34,.09,.61,.28,.81,.18,.2,.48,.29,.9,.29,.25,0,.44-.03,.58-.1,.14-.06,.25-.12,.34-.18,.09-.06,.19-.08,.28-.08,.14,0,.27,.04,.37,.12,.1,.08,.18,.18,.23,.29,.05,.12,.08,.22,.08,.32,0,.16-.09,.32-.26,.47-.17,.15-.41,.28-.71,.37-.3,.1-.64,.14-1.01,.14Z"/>
        <path class="cls-2" d="M31.16,52.71c-.22,0-.41-.05-.55-.16-.14-.1-.22-.22-.22-.34v-8.05c0-.14,.07-.26,.22-.35,.14-.09,.33-.13,.55-.13s.4,.04,.55,.13c.15,.09,.23,.2,.23,.35v8.05c0,.12-.08,.23-.23,.34-.15,.1-.34,.16-.55,.16Z"/>
        <path class="cls-2" d="M34.47,52.82c-.42,0-.79-.13-1.1-.39-.31-.26-.46-.66-.46-1.21,0-.46,.12-.81,.35-1.07,.24-.26,.56-.44,.98-.54,.42-.1,.91-.16,1.46-.16h.49v-.16c0-.18-.03-.35-.1-.52-.07-.17-.18-.31-.32-.42s-.36-.17-.63-.17c-.3,0-.54,.03-.7,.09-.16,.06-.29,.12-.38,.19-.09,.06-.18,.1-.29,.1-.17,0-.3-.08-.39-.25-.09-.17-.14-.34-.14-.52s.1-.32,.31-.45c.2-.13,.45-.23,.75-.31,.3-.07,.58-.11,.86-.11,.62,0,1.12,.11,1.5,.34s.65,.51,.82,.86c.17,.35,.26,.73,.26,1.14v2.94c0,.14-.07,.25-.22,.35-.14,.1-.32,.14-.54,.14-.2,0-.37-.05-.5-.14-.13-.1-.2-.21-.2-.35v-.35c-.22,.25-.47,.47-.76,.66s-.65,.29-1.06,.29Zm.62-1.15c.17,0,.34-.06,.5-.17,.17-.11,.31-.26,.43-.43s.17-.36,.17-.55v-.25h-.18c-.26,0-.52,.02-.76,.05-.24,.03-.43,.1-.58,.21-.15,.11-.22,.27-.22,.5s.06,.39,.19,.49c.12,.1,.27,.16,.45,.16Z"/>
        <path class="cls-2" d="M40.76,52.82c-.4,0-.77-.05-1.1-.15-.33-.1-.59-.23-.78-.39-.19-.16-.28-.32-.28-.49,0-.08,.02-.17,.07-.28,.04-.11,.1-.2,.18-.28s.17-.12,.27-.12c.11,0,.23,.05,.35,.14s.28,.18,.47,.27c.19,.09,.45,.13,.79,.13,.36,0,.6-.06,.71-.17,.12-.11,.17-.23,.17-.35,0-.18-.07-.31-.21-.41-.14-.1-.32-.18-.53-.24-.22-.06-.45-.13-.69-.2s-.47-.16-.69-.28c-.22-.12-.39-.28-.53-.48-.14-.2-.2-.47-.2-.8,0-.29,.07-.57,.2-.84,.14-.27,.36-.5,.67-.68,.31-.18,.74-.27,1.27-.27,.33,0,.64,.03,.93,.1,.29,.07,.53,.16,.71,.28,.18,.12,.28,.25,.28,.4,0,.07-.02,.17-.07,.28-.05,.12-.11,.22-.2,.32s-.19,.14-.31,.14c-.09,0-.19-.03-.32-.09-.12-.06-.27-.12-.43-.17s-.35-.08-.58-.08c-.2,0-.36,.03-.48,.08-.12,.06-.21,.12-.26,.2s-.08,.16-.08,.25c0,.14,.07,.26,.2,.34s.31,.15,.53,.2,.45,.12,.7,.19c.24,.07,.48,.17,.7,.3,.22,.13,.4,.31,.53,.52s.2,.5,.2,.86c0,.53-.19,.95-.57,1.27-.38,.32-.93,.48-1.64,.48Z"/>
        <path class="cls-2" d="M45.76,52.82c-.4,0-.77-.05-1.1-.15-.33-.1-.59-.23-.78-.39-.19-.16-.28-.32-.28-.49,0-.08,.02-.17,.07-.28,.04-.11,.1-.2,.18-.28s.17-.12,.27-.12c.11,0,.23,.05,.35,.14s.28,.18,.47,.27c.19,.09,.45,.13,.79,.13,.36,0,.6-.06,.71-.17,.12-.11,.17-.23,.17-.35,0-.18-.07-.31-.21-.41-.14-.1-.32-.18-.53-.24-.22-.06-.45-.13-.69-.2s-.47-.16-.69-.28c-.22-.12-.39-.28-.53-.48-.14-.2-.2-.47-.2-.8,0-.29,.07-.57,.2-.84,.14-.27,.36-.5,.67-.68,.31-.18,.74-.27,1.27-.27,.33,0,.64,.03,.93,.1,.29,.07,.53,.16,.71,.28,.18,.12,.28,.25,.28,.4,0,.07-.02,.17-.07,.28-.05,.12-.11,.22-.2,.32s-.19,.14-.31,.14c-.09,0-.19-.03-.32-.09-.12-.06-.27-.12-.43-.17s-.35-.08-.58-.08c-.2,0-.36,.03-.48,.08-.12,.06-.21,.12-.26,.2s-.08,.16-.08,.25c0,.14,.07,.26,.2,.34s.31,.15,.53,.2,.45,.12,.7,.19c.24,.07,.48,.17,.7,.3,.22,.13,.4,.31,.53,.52s.2,.5,.2,.86c0,.53-.19,.95-.57,1.27-.38,.32-.93,.48-1.64,.48Z"/>
      </g>
    </g>
    <g>
      <path class="cls-8" d="M64.01,122.22H6.49c-.22,0-.43,.11-.59,.29l-5.41,6.5c-.32,.39-.32,1.02,0,1.41l5.41,6.5c.16,.19,.37,.29,.59,.29h57.53c.22,0,.43-.11,.59-.29l5.41-6.5c.32-.39,.32-1.02,0-1.41l-5.41-6.5c-.16-.19-.37-.29-.59-.29Z"/>
      <g>
        <path class="cls-2" d="M19.88,132.82c-.09,0-.16-.02-.21-.06l-3.1-2.02c-.11-.07-.19-.16-.25-.28-.05-.11-.08-.21-.08-.3s.03-.19,.08-.3c.05-.11,.13-.2,.25-.28l3.1-2.03s.12-.05,.21-.05c.16,0,.32,.07,.47,.21,.15,.14,.23,.31,.23,.52,0,.19-.06,.32-.19,.4l-2.33,1.52,2.33,1.51c.13,.08,.19,.22,.19,.41,0,.21-.08,.38-.23,.52-.15,.14-.31,.21-.47,.21Z"/>
        <path class="cls-2" d="M25.91,133.6c-.4,0-.77-.05-1.1-.15-.33-.1-.59-.23-.78-.39-.19-.16-.28-.32-.28-.49,0-.08,.02-.17,.07-.28,.04-.11,.1-.2,.18-.28s.17-.12,.27-.12c.11,0,.23,.05,.35,.14,.12,.09,.28,.18,.47,.27,.19,.09,.45,.13,.79,.13,.36,0,.6-.06,.71-.17,.12-.11,.17-.23,.17-.35,0-.18-.07-.31-.21-.41-.14-.1-.32-.18-.53-.24-.22-.06-.45-.13-.69-.2s-.47-.16-.69-.28c-.22-.12-.39-.28-.53-.48-.14-.2-.21-.47-.21-.8,0-.29,.07-.57,.21-.84,.13-.27,.36-.5,.67-.68,.31-.18,.74-.27,1.27-.27,.33,0,.64,.03,.93,.1,.29,.07,.53,.16,.71,.28,.18,.12,.28,.25,.28,.4,0,.07-.02,.17-.07,.28-.05,.12-.11,.22-.2,.32s-.19,.14-.31,.14c-.09,0-.19-.03-.32-.09-.12-.06-.27-.12-.43-.17s-.35-.08-.58-.08c-.2,0-.36,.03-.48,.08-.12,.06-.21,.12-.27,.2-.05,.08-.08,.16-.08,.25,0,.14,.07,.26,.21,.34,.13,.08,.31,.15,.53,.2,.22,.06,.45,.12,.7,.19,.24,.07,.47,.17,.7,.3,.22,.13,.4,.31,.53,.52,.14,.22,.21,.5,.21,.86,0,.53-.19,.95-.57,1.27-.38,.32-.93,.48-1.64,.48Z"/>
        <path class="cls-2" d="M31.25,133.49c-.72,0-1.27-.16-1.65-.47-.38-.31-.57-.8-.57-1.48v-5.82c0-.14,.08-.26,.25-.35s.34-.13,.52-.13c.19,0,.37,.04,.53,.13s.25,.2,.25,.35v2.06h1.42c.13,0,.23,.06,.29,.17,.07,.12,.1,.25,.1,.39s-.03,.27-.1,.39c-.07,.12-.17,.17-.29,.17h-1.42v2.63c0,.23,.05,.4,.15,.49,.1,.1,.27,.14,.52,.14h.47c.22,0,.39,.07,.5,.2s.16,.28,.16,.44c0,.17-.05,.32-.16,.46-.11,.14-.27,.2-.5,.2h-.47Z"/>
        <path class="cls-2" d="M33.35,136.14c-.2,0-.37-.04-.5-.11-.13-.08-.2-.26-.2-.55,0-.18,.03-.33,.09-.46s.16-.19,.31-.19c.13,0,.29-.02,.47-.07,.18-.05,.36-.14,.55-.27s.34-.31,.47-.54c.13-.23,.2-.52,.23-.88l-2.06-4.42c-.03-.07-.05-.14-.05-.2,0-.14,.06-.26,.17-.37,.12-.11,.25-.2,.41-.27s.31-.1,.44-.1c.1,0,.19,.02,.27,.06s.14,.11,.17,.2l1.44,3.59,1.15-3.59c.04-.1,.1-.16,.18-.2s.16-.06,.24-.06c.12,0,.26,.03,.43,.1s.31,.16,.44,.28c.12,.12,.19,.25,.19,.39,0,.07-.01,.13-.04,.18l-1.75,4.48c-.14,.36-.28,.72-.42,1.07-.14,.36-.31,.68-.51,.97-.21,.29-.47,.53-.81,.7-.34,.18-.77,.26-1.31,.26Z"/>
        <path class="cls-2" d="M39.74,133.49c-.22,0-.41-.05-.55-.16-.14-.1-.21-.22-.21-.34v-8.05c0-.14,.07-.26,.21-.35,.14-.09,.33-.13,.55-.13s.4,.04,.55,.13c.15,.09,.23,.2,.23,.35v8.05c0,.12-.08,.23-.23,.34-.15,.1-.34,.16-.55,.16Z"/>
        <path class="cls-2" d="M44.52,133.6c-.57,0-1.07-.1-1.51-.31-.44-.2-.78-.49-1.03-.86s-.37-.8-.37-1.29v-1.02c0-.43,.12-.83,.36-1.19,.23-.36,.55-.66,.95-.88,.4-.22,.84-.33,1.33-.33,.45,0,.86,.1,1.23,.29,.37,.19,.67,.46,.91,.79,.23,.34,.35,.73,.35,1.18,0,.34-.06,.59-.17,.74-.11,.15-.25,.24-.43,.28-.17,.04-.35,.05-.54,.05h-2.44v.18c0,.34,.13,.62,.39,.83,.26,.21,.6,.32,1.01,.32,.26,0,.48-.04,.66-.12s.33-.16,.46-.23c.13-.07,.25-.11,.36-.11,.12,0,.22,.04,.31,.12,.09,.08,.16,.17,.21,.28,.05,.11,.07,.2,.07,.28,0,.14-.09,.28-.26,.44-.17,.16-.42,.29-.73,.4-.32,.11-.69,.16-1.12,.16Zm-1.36-3.47h1.75c.14,0,.23-.02,.28-.07,.05-.04,.08-.13,.08-.26,0-.18-.05-.35-.14-.49-.1-.14-.22-.26-.38-.34s-.34-.12-.53-.12-.36,.04-.52,.11-.29,.18-.39,.32c-.1,.14-.15,.31-.15,.5v.34Z"/>
        <path class="cls-2" d="M50.62,132.82c-.15,0-.3-.07-.46-.21-.16-.14-.23-.31-.23-.52,0-.19,.07-.33,.2-.41l2.32-1.51-2.32-1.52c-.13-.07-.2-.2-.2-.4,0-.21,.08-.38,.23-.52s.31-.21,.46-.21c.09,0,.16,.02,.21,.05l3.1,2.03c.11,.07,.19,.16,.25,.28,.05,.11,.08,.21,.08,.3s-.03,.19-.08,.3c-.05,.11-.13,.2-.25,.28l-3.1,2.02s-.12,.06-.21,.06Z"/>
      </g>
    </g>
    <g>
      <path class="cls-8" d="M211.5,60.85h-57.53c-.22,0-.43,.11-.59,.29l-5.41,6.5c-.32,.39-.32,1.02,0,1.41l5.41,6.5c.16,.19,.37,.29,.59,.29h57.53c.22,0,.43-.11,.59-.29l5.41-6.5c.32-.39,.32-1.02,0-1.41l-5.41-6.5c-.16-.19-.37-.29-.59-.29Z"/>
      <g>
        <path class="cls-2" d="M158.56,73.58c-.42,0-.82-.08-1.21-.23s-.74-.38-1.05-.69c-.31-.31-.55-.7-.73-1.17-.18-.47-.26-1.03-.26-1.66,0-.74,.13-1.41,.4-2.01,.27-.6,.68-1.08,1.24-1.43,.56-.35,1.27-.53,2.12-.53,.77,0,1.43,.15,1.97,.44,.54,.29,.96,.71,1.25,1.26,.29,.55,.43,1.19,.43,1.94,0,.45-.06,.87-.18,1.25s-.29,.68-.53,.91c-.24,.23-.54,.34-.92,.34-.32,0-.58-.08-.78-.23s-.33-.34-.38-.57c-.18,.23-.38,.41-.6,.54s-.47,.2-.78,.2c-.23,0-.45-.04-.66-.13s-.38-.23-.52-.41c-.13-.19-.2-.43-.2-.72,0-.35,.1-.62,.29-.82,.19-.19,.45-.33,.79-.41,.33-.08,.71-.12,1.14-.12h.34v-.17c0-.26-.07-.45-.21-.58-.14-.13-.37-.19-.68-.19-.22,0-.4,.03-.53,.08-.14,.05-.24,.1-.33,.15-.08,.05-.15,.07-.21,.07-.06,0-.12-.03-.18-.1-.05-.07-.1-.14-.12-.23s-.04-.15-.04-.2c0-.15,.08-.27,.24-.38s.36-.19,.6-.26c.24-.07,.48-.1,.73-.1,.31,0,.61,.05,.87,.17,.27,.11,.48,.27,.65,.49,.16,.22,.25,.49,.25,.82v1.86c.03,.19,.08,.33,.15,.41,.07,.08,.15,.12,.25,.12,.15,0,.26-.05,.35-.17,.09-.11,.15-.25,.19-.41s.07-.34,.08-.52c.02-.18,.02-.34,.02-.47,0-.98-.22-1.73-.66-2.25-.44-.53-1.13-.79-2.08-.79-.55,0-1.01,.08-1.38,.25-.37,.17-.66,.4-.87,.69s-.37,.63-.46,1.01-.14,.78-.14,1.19c0,.39,.04,.76,.12,1.12,.08,.36,.21,.67,.41,.94,.19,.27,.45,.49,.78,.65s.73,.24,1.21,.24c.3,0,.54-.02,.72-.07,.18-.05,.33-.1,.45-.14s.21-.07,.29-.07c.12,0,.21,.05,.26,.15s.09,.19,.09,.26c0,.12-.07,.22-.2,.3-.14,.08-.31,.15-.52,.21s-.43,.1-.65,.13c-.22,.03-.42,.04-.6,.04Zm.26-2.4c.17,0,.33-.04,.47-.13,.15-.09,.27-.2,.36-.34s.14-.28,.14-.43v-.34h-.26c-.25,0-.47,.02-.65,.07-.18,.04-.32,.12-.42,.23-.1,.11-.14,.25-.14,.42s.05,.31,.14,.4,.21,.13,.37,.13Z"/>
        <path class="cls-2" d="M164.28,72.12c-.2,0-.36-.05-.5-.14-.13-.09-.2-.2-.2-.31v-7.38c0-.13,.07-.24,.2-.32,.13-.08,.3-.12,.5-.12s.38,.04,.52,.12c.14,.08,.21,.19,.21,.32v4.61l2.08-1.95c.07-.07,.16-.11,.28-.11s.22,.04,.32,.1c.11,.07,.19,.16,.26,.26s.11,.21,.11,.32c0,.04,0,.09-.03,.14-.02,.05-.05,.09-.09,.13l-1.3,1.18,1.63,2.31c.05,.08,.08,.16,.08,.23,0,.11-.04,.22-.13,.33s-.19,.2-.32,.27-.25,.1-.36,.1c-.15,0-.26-.06-.35-.19l-1.47-2.19-.69,.63v1.21c0,.11-.07,.21-.21,.31-.14,.1-.31,.14-.52,.14Z"/>
        <path class="cls-2" d="M171.36,72.22c-.52,0-.98-.09-1.38-.28-.4-.19-.71-.45-.94-.79-.23-.34-.34-.74-.34-1.18v-.93c0-.4,.11-.76,.32-1.09s.51-.6,.87-.8c.36-.2,.77-.3,1.21-.3,.41,0,.79,.09,1.13,.26,.34,.18,.62,.42,.83,.73,.21,.31,.32,.67,.32,1.08,0,.32-.05,.54-.15,.68-.1,.14-.23,.22-.39,.25-.16,.03-.32,.05-.49,.05h-2.23v.17c0,.32,.12,.57,.36,.76,.24,.19,.55,.29,.93,.29,.24,0,.45-.04,.61-.11,.16-.07,.3-.14,.42-.21,.12-.07,.23-.1,.33-.1,.11,0,.21,.04,.29,.11,.08,.07,.14,.16,.19,.26,.04,.1,.07,.18,.07,.26,0,.12-.08,.26-.24,.4-.16,.14-.38,.26-.67,.36-.29,.1-.63,.15-1.03,.15Zm-1.24-3.18h1.61c.12,0,.21-.02,.26-.06,.05-.04,.07-.12,.07-.24,0-.17-.04-.32-.13-.45s-.21-.23-.35-.31c-.15-.07-.31-.11-.48-.11s-.33,.04-.47,.1-.27,.17-.36,.3-.14,.28-.14,.46v.31Z"/>
        <path class="cls-2" d="M174.39,74.55c-.18,0-.34-.04-.46-.1s-.19-.24-.19-.5c0-.16,.03-.3,.08-.42,.05-.12,.15-.18,.28-.18s.27-.02,.44-.07c.16-.04,.33-.13,.5-.25s.31-.29,.43-.5,.19-.48,.21-.81l-1.89-4.05c-.03-.07-.04-.13-.04-.19,0-.12,.05-.24,.16-.34s.23-.19,.38-.25c.15-.06,.28-.09,.41-.09,.09,0,.17,.02,.25,.05,.08,.04,.13,.1,.16,.19l1.32,3.29,1.06-3.29c.04-.09,.09-.15,.16-.19s.15-.05,.22-.05c.11,0,.24,.03,.4,.09,.15,.06,.29,.15,.4,.25,.11,.11,.17,.23,.17,.36,0,.07,0,.12-.03,.17l-1.61,4.1c-.13,.33-.26,.66-.38,.98s-.28,.62-.47,.89c-.19,.27-.44,.48-.74,.64-.31,.16-.71,.24-1.2,.24Z"/>
        <path class="cls-2" d="M180.15,72.12c-.2,0-.36-.04-.5-.13-.13-.08-.2-.19-.2-.31v-5.68c0-.41,.09-.78,.26-1.11s.41-.58,.71-.77c.29-.19,.62-.28,.97-.28h.65c.18,0,.31,.06,.4,.19,.09,.12,.14,.26,.14,.41,0,.16-.04,.3-.14,.42s-.22,.18-.4,.18h-.35c-.15,0-.29,.03-.42,.1-.12,.07-.22,.16-.29,.28s-.1,.26-.1,.43v1.04h1.34c.12,0,.21,.05,.27,.16,.06,.11,.09,.23,.09,.36s-.03,.25-.09,.36c-.06,.11-.15,.16-.27,.16h-1.34v3.75c0,.12-.07,.23-.21,.31-.14,.08-.31,.13-.51,.13Z"/>
        <path class="cls-2" d="M183.88,72.12c-.2,0-.36-.05-.49-.14-.13-.09-.2-.2-.2-.31v-4.33c0-.13,.07-.24,.2-.32,.13-.08,.3-.12,.49-.12,.18,0,.34,.04,.46,.12,.12,.08,.18,.19,.18,.32v.45c.08-.16,.19-.31,.32-.46,.13-.14,.29-.26,.47-.36,.18-.09,.36-.14,.56-.14h.34c.14,0,.26,.06,.36,.18s.15,.27,.15,.43-.05,.32-.15,.45-.22,.18-.36,.18h-.34c-.21,0-.41,.07-.6,.2-.2,.14-.36,.32-.48,.56-.12,.24-.19,.53-.19,.86v1.97c0,.11-.07,.21-.21,.31-.14,.1-.31,.14-.52,.14Z"/>
        <path class="cls-2" d="M188.37,72.22c-.39,0-.72-.12-1.01-.36-.28-.24-.42-.61-.42-1.11,0-.42,.11-.74,.32-.98,.22-.24,.52-.4,.9-.5,.38-.1,.83-.14,1.34-.14h.45v-.14c0-.16-.03-.32-.09-.47-.06-.15-.16-.28-.3-.38-.14-.1-.33-.15-.58-.15-.28,0-.49,.03-.64,.08s-.27,.11-.35,.17c-.08,.06-.17,.09-.26,.09-.15,0-.27-.08-.36-.23s-.13-.31-.13-.47,.09-.29,.28-.41,.42-.21,.69-.28c.27-.07,.54-.1,.79-.1,.57,0,1.03,.1,1.38,.31,.35,.21,.6,.47,.75,.79,.16,.32,.24,.67,.24,1.04v2.7c0,.12-.06,.23-.2,.32-.13,.09-.3,.13-.49,.13-.18,0-.34-.04-.46-.13-.12-.09-.18-.19-.18-.32v-.32c-.2,.23-.43,.43-.7,.61s-.59,.26-.97,.26Zm.57-1.06c.15,0,.31-.05,.46-.15s.29-.23,.39-.4c.11-.16,.16-.33,.16-.51v-.23h-.17c-.24,0-.47,.01-.69,.04-.22,.03-.4,.09-.54,.19-.13,.1-.2,.25-.2,.46s.06,.36,.17,.45c.12,.1,.25,.14,.41,.14Z"/>
        <path class="cls-2" d="M193.13,72.12c-.21,0-.37-.05-.51-.14-.13-.09-.2-.2-.2-.31v-4.33c0-.13,.07-.24,.2-.32,.13-.08,.3-.12,.51-.12,.18,0,.32,.04,.45,.12,.12,.08,.18,.19,.18,.32v.33c.12-.21,.31-.41,.55-.58,.24-.17,.55-.26,.91-.26,.32,0,.6,.1,.84,.31,.24,.21,.42,.47,.54,.79,.19-.37,.44-.65,.73-.83s.6-.27,.92-.27c.34,0,.65,.09,.95,.26,.3,.17,.54,.43,.73,.76,.19,.33,.28,.74,.28,1.21v2.61c0,.11-.07,.21-.21,.31-.14,.1-.31,.14-.51,.14s-.36-.05-.5-.14c-.14-.09-.21-.2-.21-.31v-2.61c0-.22-.04-.4-.13-.55s-.2-.26-.33-.33c-.14-.08-.28-.12-.43-.12s-.29,.04-.41,.12c-.13,.08-.24,.19-.32,.33s-.13,.33-.13,.54v2.63c0,.15-.08,.27-.22,.34-.15,.07-.31,.1-.49,.1-.16,0-.32-.04-.47-.1-.15-.07-.23-.18-.23-.34v-2.62c0-.21-.04-.38-.12-.53s-.2-.26-.33-.34c-.14-.08-.28-.12-.44-.12s-.29,.04-.42,.11c-.13,.07-.24,.18-.32,.33s-.13,.33-.13,.55v2.61c0,.11-.07,.21-.21,.31-.14,.1-.31,.14-.51,.14Z"/>
        <path class="cls-2" d="M203.72,72.22c-.52,0-.98-.09-1.38-.28-.4-.19-.71-.45-.94-.79-.23-.34-.34-.74-.34-1.18v-.93c0-.4,.11-.76,.32-1.09s.51-.6,.87-.8c.36-.2,.77-.3,1.21-.3,.41,0,.79,.09,1.13,.26,.34,.18,.62,.42,.83,.73,.21,.31,.32,.67,.32,1.08,0,.32-.05,.54-.15,.68-.1,.14-.23,.22-.39,.25-.16,.03-.32,.05-.49,.05h-2.23v.17c0,.32,.12,.57,.36,.76,.24,.19,.55,.29,.93,.29,.24,0,.45-.04,.61-.11,.16-.07,.3-.14,.42-.21,.12-.07,.23-.1,.33-.1,.11,0,.21,.04,.29,.11,.08,.07,.14,.16,.19,.26,.04,.1,.07,.18,.07,.26,0,.12-.08,.26-.24,.4-.16,.14-.38,.26-.67,.36-.29,.1-.63,.15-1.03,.15Zm-1.24-3.18h1.61c.12,0,.21-.02,.26-.06,.05-.04,.07-.12,.07-.24,0-.17-.04-.32-.13-.45s-.21-.23-.35-.31c-.15-.07-.31-.11-.48-.11s-.33,.04-.47,.1-.27,.17-.36,.3-.14,.28-.14,.46v.31Z"/>
        <path class="cls-2" d="M208.3,72.22c-.37,0-.7-.05-1.01-.14-.3-.09-.54-.21-.71-.36-.17-.15-.26-.3-.26-.45,0-.07,.02-.16,.06-.26,.04-.1,.1-.19,.17-.26,.07-.07,.15-.11,.25-.11,.1,0,.21,.04,.32,.13,.12,.08,.26,.17,.43,.25,.17,.08,.41,.12,.72,.12,.33,0,.55-.05,.65-.15,.11-.1,.16-.21,.16-.32,0-.16-.06-.29-.19-.37s-.29-.16-.49-.22c-.2-.06-.41-.12-.63-.18-.22-.06-.44-.15-.63-.25-.2-.11-.36-.25-.48-.44-.12-.19-.19-.43-.19-.73,0-.26,.06-.52,.19-.77,.12-.25,.33-.46,.62-.62,.29-.17,.68-.25,1.17-.25,.3,0,.59,.03,.85,.09,.27,.06,.49,.15,.65,.26,.17,.11,.25,.23,.25,.36,0,.07-.02,.15-.07,.26-.04,.11-.11,.2-.18,.29-.08,.09-.17,.13-.28,.13-.08,0-.18-.03-.29-.08-.11-.06-.24-.11-.39-.16-.15-.05-.32-.08-.53-.08-.18,0-.33,.03-.44,.08-.11,.05-.19,.11-.24,.19-.05,.07-.08,.15-.08,.23,0,.13,.06,.23,.19,.31s.29,.14,.49,.19c.2,.05,.41,.11,.64,.17s.44,.15,.64,.28c.2,.12,.36,.28,.49,.48,.12,.2,.19,.46,.19,.79,0,.48-.17,.87-.52,1.17-.35,.29-.85,.44-1.5,.44Z"/>
      </g>
    </g>
    <g>
      <rect class="cls-9" x="9.64" y="69.41" width="25" height="25" rx="1" ry="1"/>
      <path class="cls-4" d="M31.55,97.9h-12.7c-.77,0-1.25-.83-.87-1.5l6.35-11,6.35-11c.38-.67,1.35-.67,1.73,0l6.35,11,6.35,11c.38,.67-.1,1.5-.87,1.5h-12.7Z"/>
      <polygon class="cls-10" points="56.3 101.62 56.3 87.19 43.8 79.97 31.3 87.19 31.3 101.62 43.8 108.84 56.3 101.62"/>
      <circle class="cls-3" cx="57.75" cy="101.85" r="12.5"/>
    </g>
    <g>
      <path class="cls-5" d="M176.08,112.58l-11.74,2.14c-.32,.06-.56-.27-.42-.56l5.44-10.62c.06-.11,.06-.25,0-.36l-5.67-10.5c-.15-.28,.09-.62,.4-.57l11.78,1.89c.13,.02,.25-.02,.34-.12l8.24-8.64c.22-.23,.62-.11,.67,.21l1.84,11.79c.02,.13,.1,.24,.22,.29l10.76,5.17c.29,.14,.3,.55,0,.7l-10.64,5.4c-.11,.06-.19,.17-.21,.3l-1.59,11.83c-.04,.32-.43,.45-.66,.22l-8.42-8.46c-.09-.09-.22-.13-.35-.11Z"/>
      <g>
        <g>
          <path class="cls-6" d="M203.78,116.51s-.09-.16-.28-.41"/>
          <path class="cls-11" d="M202.85,115.34c-1.28-1.32-3.91-3.08-7.96-1.53-4.53,1.74-6.36-1.59-6.99-3.33"/>
          <path class="cls-6" d="M187.75,110.01c-.09-.3-.12-.48-.12-.48"/>
        </g>
        <path d="M204.93,116.66c.23-.14,.54,.02,.54,.29l.02,.93,.02,.93c0,.27-.28,.45-.53,.32l-.82-.44-.82-.44c-.24-.13-.25-.47-.02-.62l.79-.49,.79-.49Z"/>
      </g>
      <g>
        <path class="cls-6" d="M175.73,93.48s-1.56-5.56-7.95-4.8-5.98-5.94-5.98-5.94"/>
        <circle cx="161.46" cy="82.04" r="1.5"/>
      </g>
    </g>
  </g>
  <g id="css_sombras">
    <polygon class="cls-12" points="63.99 56.02 48.11 56.05 63.99 41.07 69.63 47.63 70.25 48.53 63.99 56.02"/>
    <polygon class="cls-12" points="211.59 75.82 195.71 75.84 211.59 60.87 217.23 67.42 217.85 68.33 211.59 75.82"/>
    <polygon class="cls-12" points="63.99 137.18 48.11 137.21 63.99 122.23 69.63 128.79 70.25 129.7 63.99 137.18"/>
    <polygon class="cls-1" points="166.36 25.78 74.42 156.26 107.77 177.23 108.96 177.69 110.04 177.61 111.56 176.85 166.55 142.23 167.27 141.27 167.58 139.63 167.58 114.14 164.47 114.6 163.87 114.34 167.58 107.03 167.58 100.02 163.65 92.36 164.1 92.11 167.58 92.67 167.58 76.11 153.87 75.84 147.74 68.35 147.74 67.97 153.58 60.85 167.58 60.85 167.58 28.19 167.34 27.02 166.36 25.78"/>
    <polyline class="cls-12" points="176.19 112.59 177.1 113.37 184.85 121.15 185.4 121.15 187.16 108.97 198.17 102.98 187.19 97.54 176.19 112.59"/>
    <path class="cls-12" d="M49.59,111.32s19.39,3.29,19.39-14.95l.94,2.65,.33,3.25-.64,3.54-1.75,3.4-2.68,2.7-3.36,1.77-4.07,.68-3.33-.45-2.86-1.19-1.97-1.39Z"/>
    <polygon class="cls-12" points="31.3 101.62 56.3 87.19 56.3 89.35 52.88 90.26 51.11 91.3 49.12 92.81 46.81 95.81 45.47 99.51 45.26 102.18 45.68 105.1 46.39 107.08 45.8 107.68 43.8 108.84 40.42 106.84 31.3 101.62"/>
    <path class="cls-12" d="M17.92,97.25s13.38-7.63,13.38-7.49,0,8.14,0,8.14l-12.62,.12-.76-.76Z"/>
    <polygon class="cls-12" points="9.77 93.89 34.37 69.72 34.64 70.64 34.64 77.95 32.58 74.4 31.77 73.9 31.04 74 30.5 74.63 19.04 94.41 10.64 94.41 9.77 93.89"/>
  </g>
</svg>