<?xml version="1.0" encoding="UTF-8"?>
<svg id="Capa_2" data-name="Capa 2" xmlns="http://www.w3.org/2000/svg" viewBox="0 0 231.46 178.27">
  <defs>
    <style>
      .cls-1 {
        opacity: .1;
      }

      .cls-2 {
        fill: #fff;
      }

      .cls-3 {
        fill: #c66f58;
      }

      .cls-3, .cls-4, .cls-5, .cls-6, .cls-7, .cls-8 {
        stroke: #000;
        stroke-width: .5px;
      }

      .cls-3, .cls-4, .cls-5, .cls-6, .cls-8 {
        stroke-miterlimit: 10;
      }

      .cls-4 {
        fill: #db4924;
      }

      .cls-5 {
        fill: #aed2fc;
      }

      .cls-6 {
        fill: #f9ea8f;
      }

      .cls-9 {
        opacity: .15;
      }

      .cls-7 {
        stroke-linejoin: round;
      }

      .cls-7, .cls-8 {
        fill: none;
      }
    </style>
  </defs>
  <g id="html_trazos">
    <path class="cls-4" d="M47.28,28.39v109.95c0,1.4,.73,2.69,1.92,3.42l58.54,35.68c1.28,.78,2.88,.78,4.16,0l60.46-36.85h0V28.39c0-2.21-1.79-4-4-4H51.28c-2.21,0-4,1.79-4,4Z"/>
    <g>
      <path class="cls-3" d="M64.01,50.54H6.49c-.22,0-.43,.11-.59,.29L.49,57.34c-.32,.39-.32,1.02,0,1.41l5.41,6.5c.16,.19,.37,.29,.59,.29h57.53c.22,0,.43-.11,.59-.29l5.41-6.5c.32-.39,.32-1.02,0-1.41l-5.41-6.5c-.16-.19-.37-.29-.59-.29Z"/>
      <g>
        <path class="cls-2" d="M24.33,61.82c-.09,0-.16-.02-.2-.06l-3.1-2.02c-.11-.07-.19-.16-.25-.28s-.08-.21-.08-.3,.03-.19,.08-.3c.05-.11,.13-.2,.25-.28l3.1-2.03s.12-.05,.2-.05c.16,0,.32,.07,.47,.21,.15,.14,.23,.31,.23,.52,0,.19-.06,.32-.19,.4l-2.33,1.52,2.33,1.51c.13,.08,.19,.22,.19,.41,0,.21-.08,.38-.23,.52-.15,.14-.31,.21-.47,.21Z"/>
        <path class="cls-2" d="M30.39,62.6c-.38,0-.72-.12-1.04-.35-.32-.23-.58-.54-.77-.91-.19-.38-.29-.78-.29-1.2v-.98c0-.45,.1-.86,.29-1.22,.19-.37,.45-.66,.77-.88,.32-.22,.68-.33,1.07-.33s.7,.09,.96,.28c.26,.19,.46,.4,.59,.63v-3.68c0-.14,.08-.26,.23-.35,.15-.09,.34-.13,.56-.13s.4,.04,.54,.13c.14,.09,.22,.2,.22,.35v8.05c0,.12-.07,.23-.22,.34-.14,.1-.32,.16-.54,.16-.19,0-.36-.05-.49-.16-.14-.1-.2-.22-.2-.34v-.35c-.12,.25-.33,.47-.64,.66-.31,.19-.65,.29-1.03,.29Zm.49-1.36c.21,0,.39-.06,.55-.17,.16-.12,.29-.24,.38-.38,.1-.14,.14-.25,.14-.33v-1.2c0-.22-.05-.42-.16-.58-.11-.16-.24-.28-.41-.37-.16-.09-.33-.13-.5-.13-.19,0-.37,.05-.53,.16s-.29,.24-.38,.4c-.09,.16-.14,.33-.14,.52v.98c0,.18,.05,.36,.14,.53,.09,.17,.22,.31,.38,.41,.16,.11,.34,.16,.53,.16Z"/>
        <path class="cls-2" d="M35.49,55.52c-.23,0-.43-.08-.6-.23-.17-.16-.25-.33-.25-.52,0-.21,.08-.39,.25-.53,.17-.15,.37-.22,.6-.22s.44,.07,.6,.22c.16,.15,.24,.33,.24,.53,0,.19-.08,.37-.24,.52-.16,.16-.36,.23-.6,.23Zm0,6.97c-.22,0-.41-.05-.55-.16-.14-.1-.22-.22-.22-.34v-4.73c0-.14,.07-.26,.22-.35,.14-.09,.33-.13,.55-.13s.4,.04,.55,.13,.23,.2,.23,.35v4.73c0,.12-.08,.23-.23,.34s-.34,.16-.55,.16Z"/>
        <path class="cls-2" d="M39.74,62.62c-.16,0-.31-.02-.44-.07-.14-.05-.22-.12-.26-.2l-2.05-4.75s-.03-.06-.04-.1-.02-.08-.02-.11c0-.12,.06-.23,.17-.33,.12-.1,.25-.18,.41-.24,.16-.06,.31-.09,.44-.09,.1,0,.19,.02,.27,.06s.14,.11,.17,.2l1.34,3.48,1.33-3.46c.03-.1,.09-.18,.17-.22s.17-.07,.28-.07,.24,.03,.4,.09,.31,.14,.44,.25,.19,.22,.19,.34c0,.04,0,.08-.01,.11,0,.03-.02,.06-.04,.1l-2.06,4.75c-.04,.09-.13,.16-.26,.2-.14,.05-.28,.07-.43,.07Z"/>
        <path class="cls-2" d="M46.17,61.82c-.15,0-.31-.07-.46-.21s-.23-.31-.23-.52c0-.19,.07-.33,.2-.41l2.32-1.51-2.32-1.52c-.14-.07-.2-.2-.2-.4,0-.21,.08-.38,.23-.52,.16-.14,.31-.21,.46-.21,.09,0,.16,.02,.2,.05l3.1,2.03c.11,.07,.19,.16,.25,.28,.05,.11,.08,.21,.08,.3s-.03,.19-.08,.3-.13,.2-.25,.28l-3.1,2.02s-.12,.06-.2,.06Z"/>
      </g>
    </g>
    <g>
      <path class="cls-3" d="M223.91,35.54h-57.53c-.22,0-.43,.11-.59,.29l-5.41,6.5c-.32,.39-.32,1.02,0,1.41l5.41,6.5c.16,.19,.37,.29,.59,.29h57.53c.22,0,.43-.11,.59-.29l5.41-6.5c.32-.39,.32-1.02,0-1.41l-5.41-6.5c-.16-.19-.37-.29-.59-.29Z"/>
      <g>
        <path class="cls-2" d="M179.53,45.91c-.09,0-.16-.02-.2-.06l-3.1-2.02c-.11-.07-.19-.16-.25-.28s-.08-.21-.08-.3,.03-.19,.08-.3c.05-.11,.13-.2,.25-.28l3.1-2.03s.12-.05,.2-.05c.16,0,.32,.07,.47,.21,.15,.14,.23,.31,.23,.52,0,.19-.06,.32-.19,.4l-2.33,1.52,2.33,1.51c.13,.08,.19,.22,.19,.41,0,.21-.08,.38-.23,.52-.15,.14-.31,.21-.47,.21Z"/>
        <path class="cls-2" d="M186.83,46.69c-.38,0-.72-.1-1.02-.29-.3-.19-.52-.41-.65-.66v.35c0,.12-.07,.23-.2,.34s-.3,.16-.5,.16c-.22,0-.4-.05-.54-.16-.14-.1-.22-.22-.22-.34v-8.05c0-.14,.07-.26,.22-.35,.14-.09,.32-.13,.54-.13s.41,.04,.56,.13c.15,.09,.23,.2,.23,.35v3.68c.13-.23,.32-.44,.59-.63,.26-.19,.58-.28,.95-.28,.39,0,.75,.11,1.07,.33,.32,.22,.58,.51,.77,.88,.19,.37,.29,.78,.29,1.22v.98c0,.42-.1,.82-.29,1.2s-.45,.68-.77,.91c-.32,.23-.67,.35-1.04,.35Zm-.49-1.36c.19,0,.37-.05,.53-.16,.16-.11,.29-.25,.38-.41,.09-.17,.14-.34,.14-.53v-.98c0-.18-.05-.36-.14-.52-.09-.16-.22-.29-.38-.4s-.34-.16-.54-.16c-.17,0-.33,.04-.5,.13-.16,.09-.3,.21-.41,.37-.11,.16-.16,.35-.16,.58v1.2c0,.08,.05,.19,.14,.33,.1,.14,.23,.27,.39,.38,.16,.12,.35,.17,.55,.17Z"/>
        <path class="cls-2" d="M192.3,46.69c-.46,0-.89-.11-1.28-.34-.39-.23-.71-.53-.95-.91-.24-.38-.36-.78-.36-1.21v-.98c0-.43,.12-.83,.35-1.21,.23-.37,.55-.67,.94-.89,.4-.22,.83-.34,1.3-.34s.91,.11,1.3,.33c.4,.22,.71,.51,.95,.88,.24,.37,.35,.78,.35,1.22v.98c0,.42-.12,.82-.36,1.2-.24,.38-.56,.68-.95,.91-.4,.23-.83,.35-1.29,.35Zm0-1.36c.19,0,.37-.05,.53-.16s.29-.24,.38-.41c.1-.17,.14-.35,.14-.53v-.98c0-.18-.05-.36-.14-.52-.1-.16-.22-.29-.38-.4s-.33-.16-.53-.16-.37,.05-.53,.16-.29,.24-.38,.4c-.09,.16-.14,.34-.14,.52v.98c0,.18,.05,.36,.14,.53,.09,.17,.22,.31,.38,.41s.34,.16,.53,.16Z"/>
        <path class="cls-2" d="M197.78,46.69c-.38,0-.72-.12-1.04-.35-.32-.23-.58-.54-.77-.91-.19-.38-.29-.78-.29-1.2v-.98c0-.45,.1-.86,.29-1.22,.19-.37,.45-.66,.77-.88,.32-.22,.68-.33,1.07-.33s.7,.09,.96,.28c.26,.19,.46,.4,.59,.63v-3.68c0-.14,.08-.26,.23-.35,.15-.09,.34-.13,.56-.13s.4,.04,.54,.13c.14,.09,.22,.2,.22,.35v8.05c0,.12-.07,.23-.22,.34-.14,.1-.32,.16-.54,.16-.19,0-.36-.05-.49-.16-.14-.1-.2-.22-.2-.34v-.35c-.12,.25-.33,.47-.64,.66-.31,.19-.65,.29-1.03,.29Zm.49-1.36c.21,0,.39-.06,.55-.17,.16-.12,.29-.24,.38-.38,.1-.14,.14-.25,.14-.33v-1.2c0-.22-.05-.42-.16-.58-.11-.16-.24-.28-.41-.37-.16-.09-.33-.13-.5-.13-.19,0-.37,.05-.53,.16s-.29,.24-.38,.4c-.09,.16-.14,.33-.14,.52v.98c0,.18,.05,.36,.14,.53,.09,.17,.22,.31,.38,.41,.16,.11,.34,.16,.53,.16Z"/>
        <path class="cls-2" d="M202.28,49.24c-.2,0-.37-.04-.5-.11-.14-.08-.2-.26-.2-.55,0-.18,.03-.33,.09-.46,.06-.13,.16-.19,.31-.19,.14,0,.29-.02,.47-.07,.18-.05,.36-.14,.55-.27,.18-.13,.34-.31,.47-.54s.2-.52,.23-.88l-2.06-4.42c-.03-.07-.05-.14-.05-.2,0-.14,.06-.26,.17-.37,.12-.11,.25-.2,.41-.27,.16-.07,.31-.1,.44-.1,.1,0,.19,.02,.27,.06s.14,.11,.17,.2l1.44,3.59,1.15-3.59c.04-.1,.1-.16,.18-.2s.16-.06,.24-.06c.12,0,.26,.03,.43,.1,.17,.07,.31,.16,.44,.28,.12,.12,.19,.25,.19,.39,0,.07-.01,.13-.04,.18l-1.75,4.48c-.14,.36-.28,.72-.42,1.07-.14,.36-.31,.68-.51,.97s-.47,.53-.81,.7c-.34,.18-.77,.26-1.31,.26Z"/>
        <path class="cls-2" d="M210.77,45.91c-.15,0-.31-.07-.46-.21s-.23-.31-.23-.52c0-.19,.07-.33,.2-.41l2.32-1.51-2.32-1.52c-.14-.07-.2-.2-.2-.4,0-.21,.08-.38,.23-.52,.16-.14,.31-.21,.46-.21,.09,0,.16,.02,.2,.05l3.1,2.03c.11,.07,.19,.16,.25,.28,.05,.11,.08,.21,.08,.3s-.03,.19-.08,.3-.13,.2-.25,.28l-3.1,2.02s-.12,.06-.2,.06Z"/>
      </g>
    </g>
    <g>
      <path class="cls-3" d="M224.97,125.66h-57.53c-.22,0-.43,.11-.59,.29l-5.41,6.5c-.32,.39-.32,1.02,0,1.41l5.41,6.5c.16,.19,.37,.29,.59,.29h57.53c.22,0,.43-.11,.59-.29l5.41-6.5c.32-.39,.32-1.02,0-1.41l-5.41-6.5c-.16-.19-.37-.29-.59-.29Z"/>
      <g>
        <path class="cls-2" d="M175.09,136.68c-.09,0-.16-.02-.2-.06l-3.1-2.02c-.11-.07-.19-.16-.25-.28s-.08-.21-.08-.3,.03-.19,.08-.3c.05-.11,.13-.2,.25-.28l3.1-2.03s.12-.05,.2-.05c.16,0,.32,.07,.47,.21,.15,.14,.23,.31,.23,.52,0,.19-.06,.32-.19,.4l-2.33,1.52,2.33,1.51c.13,.08,.19,.22,.19,.41,0,.21-.08,.38-.23,.52-.15,.14-.31,.21-.47,.21Z"/>
        <path class="cls-2" d="M181.11,137.46c-.4,0-.77-.05-1.1-.15-.33-.1-.59-.23-.78-.39-.19-.16-.28-.32-.28-.49,0-.08,.02-.17,.07-.28,.04-.11,.1-.2,.18-.28s.17-.12,.27-.12c.11,0,.23,.05,.35,.14,.12,.09,.28,.18,.47,.27,.19,.09,.45,.13,.79,.13,.36,0,.6-.06,.71-.17s.17-.23,.17-.35c0-.18-.07-.31-.21-.41-.14-.1-.32-.18-.53-.24-.22-.06-.45-.13-.69-.2-.24-.07-.47-.16-.69-.28-.22-.12-.39-.28-.53-.48-.14-.2-.2-.47-.2-.8,0-.29,.07-.57,.2-.84,.14-.27,.36-.5,.67-.68,.31-.18,.74-.27,1.27-.27,.33,0,.64,.03,.93,.1s.53,.16,.71,.28c.18,.12,.28,.25,.28,.4,0,.07-.02,.17-.07,.28-.05,.12-.11,.22-.2,.32-.08,.1-.19,.14-.31,.14-.09,0-.19-.03-.32-.09s-.27-.12-.43-.17c-.16-.06-.35-.08-.58-.08-.2,0-.36,.03-.48,.08-.12,.06-.21,.12-.26,.2-.06,.08-.08,.16-.08,.25,0,.14,.07,.26,.2,.34,.14,.08,.31,.15,.53,.2,.22,.06,.45,.12,.7,.19,.24,.07,.48,.17,.7,.3,.22,.13,.4,.31,.53,.52,.14,.22,.2,.5,.2,.86,0,.53-.19,.95-.57,1.27s-.93,.48-1.64,.48Z"/>
        <path class="cls-2" d="M186.94,137.46c-.57,0-1.07-.1-1.51-.31-.44-.2-.78-.49-1.03-.86s-.37-.8-.37-1.29v-1.02c0-.43,.12-.83,.35-1.19,.24-.36,.55-.66,.95-.88,.4-.22,.84-.33,1.33-.33,.45,0,.86,.1,1.23,.29s.67,.46,.91,.79c.23,.34,.35,.73,.35,1.18,0,.34-.06,.59-.17,.74-.11,.15-.25,.24-.43,.28-.17,.04-.35,.05-.53,.05h-2.44v.18c0,.34,.13,.62,.39,.83,.26,.21,.6,.32,1.01,.32,.26,0,.48-.04,.66-.12s.33-.16,.46-.23c.13-.07,.25-.11,.36-.11,.12,0,.22,.04,.31,.12s.16,.17,.2,.28c.05,.11,.07,.2,.07,.28,0,.14-.09,.28-.26,.44s-.42,.29-.73,.4c-.32,.11-.69,.16-1.12,.16Zm-1.36-3.47h1.75c.14,0,.23-.02,.28-.07s.08-.13,.08-.26c0-.18-.05-.35-.14-.49-.1-.14-.22-.26-.38-.34-.16-.08-.34-.12-.53-.12s-.36,.04-.52,.11c-.16,.08-.29,.18-.39,.32-.1,.14-.15,.31-.15,.5v.34Z"/>
        <path class="cls-2" d="M192.49,137.46c-.61,0-1.1-.11-1.49-.32-.38-.22-.67-.51-.85-.88s-.28-.79-.28-1.25v-.96c0-.46,.09-.88,.27-1.25s.46-.67,.85-.88c.39-.22,.88-.32,1.47-.32,.38,0,.71,.04,1,.13,.29,.09,.52,.2,.68,.35s.25,.3,.25,.46c0,.09-.03,.19-.08,.31s-.12,.22-.22,.31-.2,.13-.32,.13c-.09,0-.18-.03-.27-.08-.09-.06-.21-.11-.35-.17-.14-.06-.34-.08-.58-.08-.41,0-.7,.1-.89,.29-.18,.2-.28,.47-.28,.81v.96c0,.34,.09,.61,.28,.81,.18,.2,.48,.29,.9,.29,.25,0,.44-.03,.58-.1,.14-.06,.25-.12,.34-.18,.09-.06,.19-.08,.28-.08,.14,0,.27,.04,.37,.12,.1,.08,.18,.18,.23,.29s.08,.22,.08,.32c0,.16-.09,.32-.26,.47-.17,.15-.41,.28-.71,.37-.3,.1-.64,.14-1.01,.14Z"/>
        <path class="cls-2" d="M197.47,137.35c-.72,0-1.27-.16-1.65-.47-.38-.31-.57-.8-.57-1.48v-5.82c0-.14,.08-.26,.25-.35s.34-.13,.52-.13c.19,0,.37,.04,.53,.13s.25,.2,.25,.35v2.06h1.42c.13,0,.23,.06,.29,.17,.07,.12,.1,.25,.1,.39s-.03,.27-.1,.39c-.07,.12-.17,.17-.29,.17h-1.42v2.63c0,.23,.05,.4,.15,.49,.1,.1,.27,.14,.52,.14h.47c.22,0,.39,.07,.5,.2,.11,.14,.16,.28,.16,.44s-.05,.32-.16,.46c-.11,.14-.27,.2-.5,.2h-.47Z"/>
        <path class="cls-2" d="M200.17,130.38c-.23,0-.43-.08-.6-.23-.17-.16-.25-.33-.25-.52,0-.21,.08-.39,.25-.53,.17-.15,.37-.22,.6-.22s.44,.07,.6,.22c.16,.15,.24,.33,.24,.53,0,.19-.08,.37-.24,.52-.16,.16-.36,.23-.6,.23Zm0,6.97c-.22,0-.41-.05-.55-.16-.14-.1-.22-.22-.22-.34v-4.73c0-.14,.07-.26,.22-.35,.14-.09,.33-.13,.55-.13s.4,.04,.55,.13,.23,.2,.23,.35v4.73c0,.12-.08,.23-.23,.34-.15,.1-.34,.16-.55,.16Z"/>
        <path class="cls-2" d="M204.51,137.46c-.46,0-.89-.11-1.28-.34-.39-.23-.71-.53-.95-.91-.24-.38-.36-.78-.36-1.21v-.98c0-.43,.12-.83,.35-1.21,.23-.37,.55-.67,.94-.89,.4-.22,.83-.34,1.3-.34s.91,.11,1.3,.33c.4,.22,.71,.51,.95,.88,.24,.37,.35,.78,.35,1.22v.98c0,.42-.12,.82-.36,1.2-.24,.38-.56,.68-.95,.91-.4,.23-.83,.35-1.29,.35Zm0-1.36c.19,0,.37-.05,.53-.16,.16-.1,.29-.24,.38-.41,.1-.17,.14-.35,.14-.53v-.98c0-.18-.05-.36-.14-.52-.1-.16-.22-.29-.38-.4s-.33-.16-.53-.16-.37,.05-.53,.16-.29,.24-.38,.4c-.09,.16-.14,.34-.14,.52v.98c0,.18,.05,.36,.14,.53,.09,.17,.22,.31,.38,.41,.16,.1,.34,.16,.53,.16Z"/>
        <path class="cls-2" d="M208.86,137.35c-.22,0-.41-.05-.55-.16-.14-.1-.22-.22-.22-.34v-4.73c0-.14,.07-.26,.22-.35,.14-.09,.33-.13,.55-.13,.19,0,.35,.04,.49,.13,.13,.09,.2,.2,.2,.35v.36c.12-.23,.32-.44,.59-.63,.28-.19,.61-.28,1.01-.28,.38,0,.72,.11,1.03,.33,.31,.22,.56,.51,.75,.88,.19,.37,.28,.78,.28,1.22v2.84c0,.16-.08,.28-.24,.37-.16,.08-.34,.13-.54,.13-.18,0-.35-.04-.52-.13s-.25-.21-.25-.37v-2.84c0-.18-.05-.36-.14-.52-.09-.16-.22-.29-.38-.4s-.34-.16-.53-.16c-.16,0-.32,.04-.47,.13-.15,.09-.28,.21-.37,.37-.1,.16-.14,.35-.14,.58v2.84c0,.12-.08,.23-.23,.34-.15,.1-.34,.16-.55,.16Z"/>
        <path class="cls-2" d="M217.34,136.68c-.15,0-.31-.07-.46-.21-.16-.14-.23-.31-.23-.52,0-.19,.07-.33,.2-.41l2.32-1.51-2.32-1.52c-.14-.07-.2-.2-.2-.4,0-.21,.08-.38,.23-.52,.16-.14,.31-.21,.46-.21,.09,0,.16,.02,.2,.05l3.1,2.03c.11,.07,.19,.16,.25,.28,.05,.11,.08,.21,.08,.3s-.03,.19-.08,.3-.13,.2-.25,.28l-3.1,2.02s-.12,.06-.2,.06Z"/>
      </g>
    </g>
    <path class="cls-3" d="M110.03,140.96c-6.86,0-12.68-1.17-17.46-3.52-4.78-2.34-8.39-5.39-10.83-9.13-2.43-3.74-3.65-7.69-3.65-11.85,0-3.16,.77-5.28,2.3-6.36,1.53-1.08,3.7-1.62,6.49-1.62,3.7,0,6.09,.66,7.18,1.97,1.08,1.31,1.62,2.91,1.62,4.8,0,2.16,.61,4.01,1.82,5.55,1.22,1.53,2.89,2.7,5.01,3.52,2.12,.81,4.49,1.22,7.1,1.22,4.51,0,8.03-1.22,10.56-3.66,2.52-2.43,3.79-6.22,3.79-11.37v-2.57c0-5.14-1.27-8.95-3.79-11.44-2.53-2.48-6-3.72-10.42-3.72h-20.03c-2.7,0-4.55-.63-5.55-1.89-1-1.26-1.49-2.93-1.49-5.01,0-.63,.02-1.22,.07-1.76,.04-.55,.11-1.13,.2-1.76l3.38-35.59c.09-1.71,.42-3.07,1.01-4.06,.59-.99,1.38-1.49,2.37-1.49h41.69c1.8,0,3.13,.79,3.99,2.37,.85,1.58,1.28,3.36,1.28,5.35s-.43,3.65-1.28,5.28c-.86,1.62-2.19,2.44-3.99,2.44h-30.45l-1.62,22.33h10.42c5.95,0,11.32,.93,16.1,2.77,4.78,1.85,8.6,4.92,11.44,9.21s4.26,9.95,4.26,16.98v2.57c0,7.31-1.42,13.22-4.26,17.73-2.84,4.52-6.66,7.76-11.44,9.75s-10.06,2.97-15.83,2.97Z"/>
    <g>
      <path class="cls-6" d="M188.19,70.65v-1.73c0-.44-.36-.8-.8-.8h-7.33c-.44,0-.8,.36-.8,.8v25.61c0,.44,.36,.8,.8,.8h33.41c.44,0,.8-.36,.8-.8v-22.28c0-.44-.36-.8-.8-.8h-24.49c-.44,0-.8-.36-.8-.8Z"/>
      <path class="cls-6" d="M213.59,95.32h-33.4c-.49,0-.86-.44-.79-.92l2.98-19.06c.06-.39,.39-.67,.79-.67h33.4c.49,0,.86,.44,.79,.92l-2.98,19.06c-.06,.39-.39,.67-.79,.67Z"/>
    </g>
    <g>
      <path class="cls-6" d="M165.87,84.53v-1.73c0-.44-.36-.8-.8-.8h-7.33c-.44,0-.8,.36-.8,.8v25.61c0,.44,.36,.8,.8,.8h33.41c.44,0,.8-.36,.8-.8v-22.28c0-.44-.36-.8-.8-.8h-24.49c-.44,0-.8-.36-.8-.8Z"/>
      <path class="cls-6" d="M191.27,109.2h-33.4c-.49,0-.86-.44-.79-.92l2.98-19.06c.06-.39,.39-.67,.79-.67h33.4c.49,0,.86,.44,.79,.92l-2.98,19.06c-.06,.39-.39,.67-.79,.67Z"/>
    </g>
    <g>
      <rect class="cls-5" x="29.46" y="81.26" width="15" height="15" rx="1" ry="1" transform="translate(73.93 177.52) rotate(-180)"/>
      <rect class="cls-5" x="44.46" y="111.26" width="15" height="15" rx="1" ry="1" transform="translate(103.93 237.52) rotate(-180)"/>
      <rect class="cls-5" x="44.46" y="141.26" width="15" height="15" rx="1" ry="1" transform="translate(103.93 297.52) rotate(-180)"/>
      <rect class="cls-5" x="14.46" y="111.26" width="15" height="15" rx="1" ry="1" transform="translate(43.93 237.52) rotate(-180)"/>
      <rect class="cls-5" x="24.46" y="141.26" width="15" height="15" rx="1" ry="1" transform="translate(63.93 297.52) rotate(-180)"/>
      <rect class="cls-5" x="4.46" y="141.26" width="15" height="15" rx="1" ry="1" transform="translate(23.93 297.52) rotate(-180)"/>
      <line class="cls-8" x1="51.96" y1="126.26" x2="51.96" y2="141.26"/>
      <line class="cls-8" x1="21.96" y1="126.26" x2="21.96" y2="133.76"/>
      <polyline class="cls-7" points="11.96 141.26 11.96 133.76 31.96 133.76 31.96 141.26"/>
      <polyline class="cls-7" points="51.96 111.26 51.96 104.35 21.96 104.35 21.96 111.26"/>
      <line class="cls-8" x1="36.96" y1="96.26" x2="36.96" y2="104.35"/>
    </g>
    <g>
      <path d="M86.86,20c-.44,0-.84-.1-1.22-.29s-.56-.47-.56-.83V1.09c0-.38,.19-.66,.56-.83,.37-.17,.78-.26,1.22-.26s.87,.09,1.23,.26c.36,.17,.55,.45,.55,.83v7.14h6.16V1.09c0-.38,.19-.66,.56-.83,.37-.17,.78-.26,1.22-.26s.87,.09,1.23,.26c.37,.17,.55,.45,.55,.83V18.88c0,.37-.18,.64-.55,.83s-.77,.29-1.23,.29-.84-.1-1.22-.29c-.37-.19-.56-.47-.56-.83v-7.85h-6.16v7.85c0,.37-.18,.64-.55,.83-.37,.19-.78,.29-1.23,.29Z"/>
      <path d="M107.19,20c-.46,0-.87-.1-1.23-.29s-.55-.47-.55-.83V3.2h-4.02c-.35,0-.62-.16-.82-.49-.2-.33-.3-.7-.3-1.12,0-.38,.09-.74,.27-1.08s.47-.51,.85-.51h11.57c.4,0,.69,.17,.86,.51,.17,.34,.26,.7,.26,1.08,0,.42-.1,.79-.29,1.12s-.47,.49-.83,.49h-3.99v15.68c0,.37-.19,.64-.56,.83-.37,.19-.78,.29-1.22,.29Z"/>
      <path d="M117.75,20c-.44,0-.84-.1-1.22-.29s-.56-.47-.56-.83V1.78c0-.66,.19-1.12,.56-1.38,.37-.26,.78-.4,1.22-.4s.81,.05,1.11,.14c.3,.09,.58,.27,.85,.55,.26,.27,.54,.68,.83,1.2l3.34,6.13,3.37-6.13c.33-.53,.62-.93,.86-1.2,.25-.27,.52-.46,.83-.55,.31-.09,.67-.14,1.09-.14,.46,0,.87,.13,1.23,.4,.36,.26,.55,.73,.55,1.38V18.88c0,.37-.19,.64-.56,.83s-.78,.29-1.22,.29-.84-.1-1.22-.29-.56-.47-.56-.83V7.11l-3.17,5.69c-.16,.25-.36,.44-.57,.55-.22,.11-.44,.16-.66,.16-.2,0-.41-.05-.62-.15-.21-.1-.4-.29-.56-.56l-3.15-5.91v11.98c0,.37-.18,.64-.55,.83-.37,.19-.78,.29-1.23,.29Z"/>
      <path d="M136.65,20c-.38,0-.74-.1-1.07-.29s-.49-.47-.49-.83V1.09c0-.38,.19-.66,.56-.83,.37-.17,.78-.26,1.22-.26s.87,.09,1.23,.26c.36,.17,.55,.45,.55,.83v15.79h6.7c.35,0,.61,.16,.78,.48,.17,.32,.26,.68,.26,1.08s-.09,.74-.26,1.07c-.17,.33-.43,.49-.78,.49h-8.7Z"/>
    </g>
  </g>
  <g id="html_sombras">
    <polygon class="cls-9" points="64.19 65.52 48.31 65.54 64.19 50.57 69.83 57.13 70.45 58.03 64.19 65.52"/>
    <polygon class="cls-9" points="223.61 50.86 207.73 50.89 223.61 35.91 229.25 42.47 229.87 43.37 223.61 50.86"/>
    <polygon class="cls-9" points="224.95 140.18 209.07 140.21 224.95 125.23 230.59 131.79 231.21 132.69 224.95 140.18"/>
    <polyline class="cls-9" points="194.12 95.18 191.78 109.01 176.06 109.01 195.04 88.55"/>
    <polyline class="cls-9" points="216.44 81.31 214.11 95.13 198.38 95.13 217.36 74.67"/>
    <polygon class="cls-9" points="4.7 155.89 19.1 141.49 19.1 156.03 4.7 155.89"/>
    <polygon class="cls-9" points="25.01 155.89 39.41 141.49 39.41 156.03 25.01 155.89"/>
    <polygon class="cls-9" points="44.76 155.89 59.16 141.49 59.16 156.03 44.76 155.89"/>
    <polygon class="cls-9" points="14.76 125.66 29.16 111.26 29.16 125.8 14.76 125.66"/>
    <polygon class="cls-9" points="44.76 125.66 59.16 111.26 59.16 125.8 44.76 125.66"/>
    <polygon class="cls-9" points="29.76 95.89 44.16 81.49 44.16 96.03 29.76 95.89"/>
    <path class="cls-1" d="M71.4,155.29L171.59,26.03l.78,2.36v7.15h-6.63s-5.6,7.4-5.59,7.36,0,.8,0,.8l5.76,6.66,6.45,.08v34.72l-5.79-.16-.65-.51-.37-2.25s-8.4,.08-8.48,0,0,26.49,0,26.49l.65,.73h14.64v15.98h-5.2l-5.95,7.29v.82l5.82,6.98h4.9l-23.38,14.59-36.94,22.49h-3.56l-11.41-6.93"/>
  </g>
</svg>